<svg xmlns="http://www.w3.org/2000/svg" width="1536" height="1024"><path fill="#FDF6EF" d="m602 407 2.938 2c2.39 2.318 3.23 3.78 4.062 7-1.047 2.676-1.047 2.676-2.75 5.313l-1.672 2.675L603 426h-2v2h-2l-.875 1.875C597 432 597 432 595 434c-6.091.786-9.353.028-14.687-3-7.31-3.94-14.784-4.64-22.801-2.262-4.292 1.964-7.357 4.746-10.512 8.262l-1.504 1.395c-8.735 9.373-6.763 24.77-6.41 36.445.331 5.12 1.4 8.919 3.976 13.37 1 1.91 1.494 3.688 1.938 5.79h2v2l2.063.813a99 99 0 0 1 6.093 2.718c4.071 1.75 7.896 2.015 12.282 2.156L575 502v-20h-9c-3.22-.959-4.631-1.631-7-4-.446-3.147-.324-6.325-.312-9.5l-.05-2.668-.001-2.55-.01-2.343L559 459c3.113-2.075 3.8-2.251 7.332-2.259l2.64-.019 2.84.012 2.926-.005q3.06-.002 6.122.01c3.128.011 6.255 0 9.382-.012q2.973 0 5.946.007l2.84-.012 2.64.02c.766 0 1.532.002 2.321.004C606 457 606 457 609 459c.7 2.663.777 5.24 1 8l.586-1.645.789-2.168.773-2.144C613 459 613 459 615 456h2v-3h2l2-4h2v-2c12.181-10.063 25.883-10.653 41-10 9.515.91 18.562 5.94 25 13v2h2c1.402 1.906 1.402 1.906 2.938 4.5l1.527 2.531c1.817 3.515 3.146 7.264 4.535 10.969l1-66h2v-2c3.02-1.007 5.057-1.132 8.215-1.145l3.228-.02 3.495-.003 3.607-.01q3.787-.007 7.576-.007c3.836-.002 7.672-.02 11.508-.04q3.686-.005 7.371-.005l3.445-.022c13.099.037 24.975 2.114 35.555 10.252v2h2c6.465 8.485 6.712 16.65 6 27-1.164 5.837-4.3 10.447-8 15h-2v2c-3.462 3-3.462 3-6 3v2l2.125.75c5.08 2.209 9.115 5.201 12.875 9.25 2.184-2.184 2.381-3.042 3.125-5.937 3.513-10.818 11.26-18.385 20.875-24.063 11.51-5.772 25.482-6.993 37.977-3.695 5.619 1.93 10.664 4.608 15.023 8.695v2h2c4 5.294 4 5.294 4 9h2l1 2 1-18c20.437-5.638 20.437-5.638 28-4 2.328 1.781 2.328 1.781 4 4v4l3.29-1.715 4.335-2.223 2.16-1.13C933.02 435.72 944.054 435.897 955 439c3.625 1.625 3.625 1.625 6 3v2h2c4 5.412 4 5.412 4 8h2l-.176-2.082c-.135-2.705-.153-5.23.176-7.918 2.337-2.563 3.926-2.926 7.336-3.16A95 95 0 0 1 983 439l-.176-3.324q-.07-2.182-.136-4.363l-.127-2.186c-.093-4.037.126-5.692 2.56-9.072 3.266-2.331 5.29-2.842 9.254-3.243 5.356-.618 5.356-.618 10.563-1.937 3.218-.92 5.734-1.178 9.062-.875l3 2c.34 2.247.34 2.247.293 5.008l-.03 2.988c-.024 1.033-.05 2.065-.076 3.129l-.04 3.152A758 758 0 0 1 1017 438l3.176.148 4.136.227 2.092.094c3.666.212 5.475.45 8.596 2.531.688 3.625.688 3.625 1 7l2.93-1.426c16.895-8.121 35.38-13.531 54.07-7.574 2.783 1.194 5.347 2.526 8 4v2l4 2v2h2c3.734 6.862 4.6 12.635 4.61 20.379l.05 3.19c.048 3.331.07 6.662.09 9.993q.042 3.407.09 6.815.109 8.31.16 16.623l2.34-1.48c2.927-1.673 4.46-1.872 7.785-1.77.848.015 1.696.03 2.57.047C1127 503 1127 503 1130 504c2.34-8.58 2.614-17.16 3-26 6.233-2.58 10.491-3.607 17.25-2.437 2.703.703 2.703.703 4.75-.563 6.412-.545 11.391-.452 17 3h2l1-14h2l1-3c5.014-2.006 8.75-2.155 14-1 1.996 1.996 1.41 5.817 1.563 8.563l.13 2.154q.159 2.64.307 5.283l2-1a94 94 0 0 1 5.813-.25l3.144-.078c3.469.374 5.264 1.252 8.043 3.328 2.455 3.682 2.265 6.434 2.188 10.688l-.027 2.26A568 568 0 0 1 1215 498l-.059 2.314a397 397 0 0 1-.254 6.561l-.175 3.93c-.512 3.195-.512 3.195-1.93 5.078-3.965 2.8-7.871 2.67-12.582 2.117-3.062-1.437-3.062-1.437-5-4-.651-4.245-.355-7.936 1-12 .225-2.226.408-4.456.563-6.687l.253-3.575L1197 489c-2.605.955-3.782 1.624-5.191 4.055-1.309 4.765-1.56 9.613-1.932 14.527l-.217 2.363-.168 2.141c-.62 2.414-1.564 3.37-3.492 4.914-5.163 1.304-10.248 1.693-15-1v-6l-1.758 1.242c-7.581 5.23-13.054 7.126-22.242 6.758l.105 2.266.082 2.984.106 2.953c-.335 3.2-1.108 4.484-3.293 6.797-3.68 1.636-8.065 1.187-12 1l-3-2a70 70 0 0 1-.187-8.125l.04-2.285A496 496 0 0 1 1129 516l-3 2c-2.191.23-2.191.23-4.562.188l-2.38-.02C1117 518 1117 518 1115 517l1 7c-6.62 5.323-14.033 6.3-22.312 6.5l-2.066.093c-3.977.002-5.427-.416-8.415-3.124L1081 525c-3.165 0-4.227.476-6.937 1.938-5.643 3.033-10.573 3.271-16.876 3.312-1.172.03-1.172.03-2.369.063-5.402.036-8.996-.872-13.818-3.313l-3.437-1.687L1035 524v2c-8.587 4.293-17.545 4.319-27 4l-2.277-.05c-6.358-.392-11.23-2.843-16.723-5.95v-2h-2c-2-3-2-3-2-6h-2c-1.71-6.65-2.273-12.654-2.195-19.504l.008-2.92c.011-3.047.036-6.093.062-9.139q.016-3.117.027-6.236.035-7.6.098-15.201l-3.875.063c-3.875.062-3.875.062-6.125-1.063l.027 2.41q.12 11.233.18 22.468c.021 3.851.05 7.701.095 11.552q.063 5.572.078 11.146.01 2.127.043 4.254c.029 1.985.03 3.97.031 5.954l.027 3.426C971 526 971 526 969.145 527.865c-2.819 1.492-4.9 1.507-8.082 1.498l-3.461-.002-3.602-.048-3.602.01c-10.128-.064-10.128-.064-13.398-2.323-1.237-3.712-1.085-7.112-1.027-10.973l.037-4.92q.035-3.84.086-7.679c.149-11.918-.211-23.635-2.096-35.428-1.201-1.416-1.201-1.416-4.687-1.312-4.412.023-6.808 1.641-10.313 4.312h-2l-.018 2.023q-.098 10.414-.244 20.829-.051 3.887-.084 7.775a1846 1846 0 0 1-.142 11.17l-.02 3.517-.06 3.275-.033 2.88c-.47 2.983-1.307 4.375-3.399 6.531-2.74.518-2.74.518-6.023.531l-3.594.016-3.758-.047c-1.232.015-2.465.03-3.734.047l-3.602-.016-3.29-.013c-3.696-.638-5.392-1.857-7.999-4.518-.312-3.25-.312-3.25 0-6l-4 1v2q-2.593 1.189-5.187 2.375l-2.918 1.336c-13.726 6.113-32.402 7.057-46.77 2.289-6.259-2.703-12.11-6.363-17.125-11v-2h-2v-3h-2l-3-7c-1.943 1.866-3.797 3.753-5.508 5.836C782.43 523.05 769.346 527.266 754 529c-7.3.462-14.611.433-21.922.391-3.364-.016-6.726 0-10.09.02a3525 3525 0 0 1-6.441-.013l-3.033.019-2.816-.029-2.464-.007c-2.817-.48-4.192-1.402-6.234-3.381a45 45 0 0 1-.61-7.512c-.016-.728-.032-1.456-.05-2.206-.048-2.324-.07-4.646-.09-6.97q-.042-2.364-.09-4.728c-.074-3.861-.123-7.722-.16-11.584l-.588 2.506-.79 3.283-.777 3.256c-1.02 3.567-2.56 6.047-4.845 8.955l-1.766 2.871C685.157 522.382 675.232 528.227 665 530c-14.558 1.082-29.6 1.34-41.36-8.492-5.074-4.664-9.635-9.247-12.64-15.508l-.297 1.828-.453 2.422-.422 2.39c-2.21 6.3-9.243 9.45-14.828 12.36-9.655 4.092-17.972 5.233-28.426 5.295-1.974.017-3.95.061-5.924.105-12.766.084-23.783-2.539-34.65-9.4l-3.062-1.687L521 518v-2h-2v-2h-2v-2h-2l-2-5h-2v-3h-2c-1.765-3.088-2-4.233-2-8h-2c-3.393-9.745-4.617-18.435-4.467-28.716.03-2.179.02-4.355.008-6.534.011-7.145.33-13.196 3.459-19.75.574-1.663 1.14-3.329 1.688-5 .25-.763.502-1.526.761-2.312L507 432h2v-4h2v-3h2v-3h2c.264-.583.529-1.165.8-1.766 5.5-10.247 17.406-15.945 27.99-19.625 18.666-5.398 41.76-4.964 58.21 6.391m134 20a72 72 0 0 0-.133 4.586l-.004 2.82.012 2.969-.012 2.945.004 2.828.004 2.6c.04 2.421.04 2.421 1.129 5.252 10.023.504 10.023.504 18.938-3.5 1.255-1.466 1.255-1.466 1.062-3.5h2c.861-7.186.861-7.186-1.125-13.875-3.906-3.418-17.5-7.5-21.875-3.125m293 35-12 1v39h2v2c2.957 1.478 5.742 1.06 9 1q1.256-2.685 2.5-5.375l1.406-3.023c1.223-2.439 1.223-2.439 1.094-4.602h2v-2h2v-2q1.996-1.007 4-2l2.68-1.332c10.704-4.96 21.794-7.335 33.32-9.668q.079-2.156.125-4.312l.07-2.426c-.037-2.546-.037-2.546-2.195-5.262-8.526-1.593-14.695 1.06-21.562 5.75-3.365 1.725-5.711 1.724-9.438 1.25-2.636-1.977-3.91-3.844-5.562-6.687-2.832-4.556-4.663-3.223-9.438-1.313m-197.312 3.875c-.871 2.69-.311 4.407.312 7.125q3.969.04 7.938.063l2.287.025c1.925.009 3.85-.036 5.775-.088 1.3-1.092 1.3-1.092 1.313-3.75-.395-4.106-1.17-5.578-4.313-8.25-5.793-1.258-9.877-.032-13.312 4.875M647 466c-5.047 7.066-3.401 19.788-2.625 27.938A36.3 36.3 0 0 0 647 502h2v2c2.76 1.804 3.89 2.013 7.25 1.625L659 505v-2h2c3.867-5.8 4.34-11.109 4.313-17.875l.048-2.316c.006-6.749-1.595-11.946-5.173-17.747-4.877-4.597-8.763-3.61-13.188.938m89 9q-.042 6.468-.062 12.938l-.026 3.732-.01 3.545-.016 3.285c-.17 2.44-.17 2.44 1.114 3.5 12.309 1.087 12.309 1.087 23-4 3.212-3.626 3.53-7.1 3.344-11.785-.559-3.6-1.886-5.568-4.344-8.215-5.337-2.822-9.463-3.4-15.437-3.187l-2.217.04c-1.783.035-3.564.09-5.346.147m417 14.438c-3.563 4.565-4 9.892-4 15.562 2.958-.32 4.547-.518 6.621-2.727 1.577-2.6 1.895-4.383 2.129-7.398l.234-2.633c.186-2.28.186-2.28-.984-4.242-2.14-.195-2.14-.195-4 1.438M879 490l-2 2c-1.987.278-1.987.278-4.45.319l-2.79.06-3.018.035-3.085.059c-3.26.06-6.521.106-9.782.152l-6.621.117q-8.127.143-16.254.258v5h2l.688 1.813c1.721 2.87 3.312 3.712 6.312 5.187 8.26 1.21 14.693.266 21.883-3.871 2.9-1.546 4.908-1.817 8.117-1.129 3.383 2.846 5.021 5.716 6.75 9.75l1.297 2.984L879 515l2-1v-24zm189.875 6.313-2.07.738c-2.148.946-2.148.946-3.805 3.949-.167 2.625-.167 2.625 0 5 2.78 1.39 4.919 1.185 8 1 3.343-1.207 3.947-1.92 6-5 .08-2.332.088-4.668 0-7-3.418 0-5.063.177-8.125 1.313"/><path fill="#219138" d="M421.672 327.703 423 329v2h2l2 5h2c2 3 2 3 2 6h2c1.765 3.088 2 4.233 2 8h2l3 12c3.635.909 5.271.839 8.809.273 12.92-1.612 12.92-1.612 17.816 1.54 4.264 3.927 4.662 6.552 4.938 12.187.239 5.09.239 5.09 1.437 10 .202 2.31.364 4.623.5 6.938.215 4.575.215 4.575 1.008 9.066.734 2.979.735 5.934.867 8.996.321 6.314 1.099 12.452 2.125 18.688a216 216 0 0 1 2.375 21.75l.186 2.672c.23 4.839.192 8.01-3.061 11.89-6.633 5.988-15.181 9.979-22.98 14.242-5.417 2.963-10.784 6.009-16.145 9.07l-2.618 1.49q-2.472 1.41-4.93 2.845a214 214 0 0 1-4.615 2.608c-4.612 2.638-6.73 4.635-8.712 9.745-2.724 5.968-5.116 8.328-11 11l-2.535 1.398c-5.995 3.123-10.516 4.073-17.25 3.387-3.947.264-6.85 1.588-10.465 3.126-4.688 1.857-9.55 3.001-14.437 4.214l-5.95 1.508-2.819.708c-2.11.547-4.205 1.154-6.294 1.776-3.524.957-6.938 1.454-10.562 1.883-4.14.493-8.095 1.09-12.153 2.04-6.498 1.328-13.015 1.332-19.62 1.33-2.148.005-4.294.041-6.442.08-10.164.082-21.933-.396-30.223-7.013-3.295-3.57-4.503-5.536-4.48-10.332l.005-2.896.038-3.021.001-2.987c.045-7.412.045-7.412.679-10.964.645-4.12.72-8.162.788-12.327l.056-2.614q.086-4.117.163-8.233.103-5.42.219-10.84l.04-2.485c.074-3.43.234-6.69.748-10.088.689-5.096.649-10.142.669-15.279l.072-6.822c.035-3.564.065-7.127.078-10.691.015-3.455.056-6.908.1-10.362l-.006-3.22c.1-6.052.473-9.707 4.58-14.276 1.7-1.368 1.7-1.368 3.398-2.23l1.929-.99 2.048-.967 2.162-1.038c13.404-6.18 27.944-6.677 42.463-7.775l-.07-2.168C322.686 365.357 324.905 354 331 342h2l.313-1.75c.796-2.607 1.878-4.224 3.687-6.25h2l2-4h2v-2h2v-2l4-1v-2c24.4-13.368 50.168-12.312 72.672 4.703M357 342v2h-2c-8.425 9.748-10.72 20.435-10 33 6.43.224 12.354-.105 18.656-1.371 4.224-.795 8.463-1.404 12.719-2.004l2.635-.374q7.36-1.034 14.725-2.027l5.992-.812q3.924-.532 7.85-1.054l3.622-.49 3.245-.435c2.537-.302 2.537-.302 4.556-1.433-1.179-7.31-3.367-14.17-8-20h-2l-.707-2.27c-1.536-3.243-3.034-4.41-5.98-6.418-.83-.58-1.658-1.162-2.512-1.761-13.79-7.635-31.126-4.46-42.801 5.449m76 39c-2.367 2.848-2.367 2.848-1.625 6.188L432 390c3.583 1.002 3.583 1.002 7 0 .167-3.417.167-3.417 0-7l-2-2zm-99 14c-2.316 1.885-2.316 1.885-2.25 5-.066 3.115-.066 3.115 2.25 5 2.603-.32 2.603-.32 5-1 .167-3.417.167-3.417 0-7l-2-2zm44 43 .629 2.605c.43 3.93-.21 6.068-1.692 9.707l-1.222 3.176C374 456 374 456 371.059 456.883c-3.471.133-6.645-.269-10.059-.883 1.135 3.291 1.993 3.996 5.125 5.75L369 463c-.518 5.01-1.404 9.212-3 14-.169 2.75-.169 2.75 0 5h3l.883-2.703c3.765-10.75 3.765-10.75 7.43-13.11L380 465l-.687-2.875C378.202 454.269 382.39 446.72 386 440c-3.228-2.152-4.284-2.2-8-2m14 5c1.27 3.807 2.572 4.187 6 6.125 4.954 2.829 4.954 2.829 6 3.875.557 5.685-.414 8.57-4 13-2.453 1.226-3.617.96-6.312.625l-2.422-.3A92 92 0 0 1 384 465c3.441 4.34 7.668 6.026 13 7 4.536-.77 7.144-2.404 10-6 1.928-4.499 1.479-10.085.313-14.75-2.584-4.43-6.491-6.766-11.313-8.25zm-96 49c-1.461 2.922-1.111 5.499-1.098 8.758l.005 2.01c.005 2.118.018 4.238.03 6.357q.008 2.154.014 4.309.017 5.283.049 10.566h4q.039-3.406.063-6.812l.035-3.833c.064-3.351.064-3.351-1.098-6.355a245 245 0 0 1-.562-7.687l-.131-2.127q-.158-2.593-.307-5.186z"/><path fill="#F99711" d="M489 471c1.188 1.563 1.188 1.563 2 4-.639 1.648-1.299 3.29-2.074 4.879-1.09 2.497-1.75 4.983-2.426 7.621-1.144 4.385-2.714 8.332-4.5 12.5a263 263 0 0 0-1.5 5.563c-1.075 4.137-2.512 7.641-4.5 11.437-.7 2.736-.7 2.736-1 5h-2l.152 2.152c-.178 3.337-1.122 5.421-2.59 8.41-1.849 3.75-1.849 3.75-3.097 7.715L467 542c-2.74 1.37-4.97 1.126-8 1l-2-1v-2c-3.524 2.546-3.524 2.546-6 6h-2l-.875 2.313C447 551 447 551 445 554h-2v3h-2l-.875 2.313C439 562 439 562 437 565h-2l-.715 2.113c-1.533 3.444-3.542 6.095-5.848 9.074-2.981 3.74-2.981 3.74-5.437 7.813h-2l-.875 2.313C419 589 419 589 417 592h-2v3h-2l-.75 2.125c-1.422 3.27-3.122 6.016-5.25 8.875h-2l-2 7 3.471.136c38.404 1.53 38.404 1.53 56.529 3.239l3.545.308c6.972.713 14.324 1.697 20.455 5.317.892 2 .892 2 1 4-3.291 4.63-7.302 5.059-12.63 5.984-28.992 4.63-59.223 4.223-88.489 4.205q-3.148-.002-6.297 0c-22.239-.002-44.403-.48-66.584-2.189l-3.103-.221c-5.643-.445-10.985-1.283-16.46-2.716l-2.11-.514c-5.068-1.29-5.068-1.29-7.327-3.549-.125-2.625-.125-2.625 0-5 8.316-3.552 16.151-4.914 25.125-5.687l3.87-.365c13.333-1.226 26.606-2.18 40.005-1.948l-1.5-2.875C351 608 351 608 351 606h-2c-1.508-1.68-1.508-1.68-3.125-3.875l-1.633-2.18C343 598 343 598 343 596h-2l-2-5h-2v-3h-2v-2h-2c-4-5.412-4-5.412-4-8h-2l-2-3-2.225.2c-27.694 2.425-27.694 2.425-40.775.8l-2.343-.286C265.796 573.96 253.9 571.414 243 562v-2h-2c-2-3-2-3-2-6h-2c-3.745-10.768-1.715-19.419 2-30h2v-4h2l.36-1.77c1.045-3.64 3.062-6.48 5.64-9.23 2.625-1.062 2.625-1.062 5-1l3 2c-.535 2.318-1.144 4.32-2.125 6.5-1.308 5.233-.51 10.19.125 15.5h2v3h2v2l1.773.848C263 539 263 539 264.727 540.184c15.447 10.203 37.558 7.202 54.898 5.504l3.683-.356c8.081-.857 15.817-2.345 23.692-4.332l5.188-1.246c16.944-4.126 16.944-4.126 33.328-10.031a943 943 0 0 1 13.28-5.477l3.466-1.4q3.51-1.418 7.023-2.828c4.888-1.98 9.723-3.952 14.418-6.358C427 512 427 512 429 512v-3l-1.875-.875C425 507 425 507 423 505v-4l2.422-.883c6.59-2.46 12.892-5.158 19.14-8.383 3.485-1.758 7.006-3.414 10.544-5.06 12.236-5.696 12.236-5.696 23.609-12.928 3.561-2.6 5.886-3.165 10.285-2.746"/><path fill="#FBC10A" d="M421.672 327.703 423 329v2h2l2 5h2c2 3 2 3 2 6h2c1.765 3.088 2 4.233 2 8h2l3 12c3.635.909 5.271.839 8.809.273 12.92-1.612 12.92-1.612 17.816 1.54 4.264 3.927 4.662 6.552 4.938 12.187.239 5.09.239 5.09 1.437 10 .202 2.31.364 4.623.5 6.938.215 4.575.215 4.575 1.008 9.066.734 2.979.735 5.934.867 8.996.321 6.314 1.099 12.452 2.125 18.688a216 216 0 0 1 2.375 21.75l.186 2.672c.23 4.839.192 8.01-3.061 11.89-6.633 5.988-15.181 9.979-22.98 14.242-5.417 2.963-10.784 6.009-16.145 9.07l-2.618 1.49q-2.472 1.41-4.93 2.845a214 214 0 0 1-4.615 2.608c-4.612 2.638-6.73 4.635-8.712 9.745-2.724 5.968-5.116 8.328-11 11l-2.535 1.398c-5.995 3.123-10.516 4.073-17.25 3.387-3.947.264-6.85 1.588-10.465 3.126-4.688 1.857-9.55 3.001-14.437 4.214l-5.95 1.508-2.819.708c-2.11.547-4.205 1.154-6.294 1.776-3.524.957-6.938 1.454-10.562 1.883-4.14.493-8.095 1.09-12.153 2.04-6.498 1.328-13.015 1.332-19.62 1.33-2.148.005-4.294.041-6.442.08-10.164.082-21.933-.396-30.223-7.013-3.295-3.57-4.503-5.536-4.48-10.332l.005-2.896.038-3.021.001-2.987c.045-7.412.045-7.412.679-10.964.645-4.12.72-8.162.788-12.327l.056-2.614q.086-4.117.163-8.233.103-5.42.219-10.84l.04-2.485c.074-3.43.234-6.69.748-10.088.689-5.096.649-10.142.669-15.279l.072-6.822c.035-3.564.065-7.127.078-10.691.015-3.455.056-6.908.1-10.362l-.006-3.22c.1-6.052.473-9.707 4.58-14.276 1.7-1.368 1.7-1.368 3.398-2.23l1.929-.99 2.048-.967 2.162-1.038c13.404-6.18 27.944-6.677 42.463-7.775l-.07-2.168C322.686 365.357 324.905 354 331 342h2l.313-1.75c.796-2.607 1.878-4.224 3.687-6.25h2l2-4h2v-2h2v-2l4-1v-2c24.4-13.368 50.168-12.312 72.672 4.703m-82.05 6.34C327.41 348.783 326.286 363.615 326 382l-3.05.332c-3.823.424-7.64.889-11.456 1.365a384 384 0 0 1-4.89.563c-11.801 1.294-26.521 3.56-35.275 12.435-1.812 3.143-1.802 5.608-1.93 9.228l-.084 2.092c-.09 2.292-.16 4.583-.23 6.876q-.088 2.432-.18 4.864c-.16 4.295-.304 8.59-.443 12.885-.141 4.243-.298 8.485-.454 12.727-.667 18.345-1.241 36.693-1.801 55.042-.21 6.805-.457 13.608-.73 20.411.806 4.9 3.39 7.546 7.34 10.57 28.85 14.2 70.366.401 99.183-8.39a161 161 0 0 0 5-2c-2.53-2.999-5.19-4.067-8.82-5.453l-3.54-1.366-1.865-.708a734 734 0 0 1-5.72-2.208 972 972 0 0 0-16.547-6.296L336 503.25l-2.024-.704c-5.252-2.037-6.762-4.593-8.976-9.546-1.08-4.675-.208-8.925 1.652-13.281a396 396 0 0 0 5.258-13.45l.775-2.075q1.593-4.27 3.181-8.543 1.176-3.16 2.357-6.319l.71-1.917a180 180 0 0 1 3.636-9.01c1.286-3.061 2.236-6.008 3.103-9.206 5.541-18.164 5.541-18.164 13.293-22.707 4.815-2.25 9.81-3.877 14.885-5.44 6.362-2.125 12.367-5.171 18.436-8.009 6.672-2.972 11.712-4.299 18.902-2.043 6.272 4.46 9.362 12.784 12.71 19.54l1.331 2.68a2295 2295 0 0 1 2.748 5.571c1.401 2.84 2.823 5.669 4.246 8.498q1.34 2.718 2.675 5.438l1.294 2.547c2.919 6.034 2.995 9.204.836 15.609l-1.2 3.02-1.357 3.436L433 461l-1.518 3.797a4134 4134 0 0 1-5.554 13.798q-1.194 2.954-2.381 5.909l-1.411 3.494c-.887 2.344-1.614 4.559-2.136 7.002 29.385-13.88 29.385-13.88 55-33 1.495-14.81-1.204-30.126-2.875-44.812q-.611-5.496-1.218-10.99-.396-3.567-.807-7.13c-.614-5.367-1.173-10.718-1.53-16.109l-.206-2.789a174 174 0 0 1-.285-5.054c-.302-4.09-.937-6.46-4.01-9.116-2.98-1.942-4.118-2.626-7.569-2.437l-2.555.128c-5.675.595-11.312 1.4-16.945 2.309l-.262-1.766C434.036 348.47 426.128 334.412 413 325c-10.458-6.152-20.105-9.58-32.25-9.5l-3.073.02c-15.353.373-27.555 7.367-38.056 18.523M378 438l.629 2.605c.43 3.93-.21 6.068-1.692 9.707l-1.222 3.176C374 456 374 456 371.059 456.883c-3.471.133-6.645-.269-10.059-.883 1.135 3.291 1.993 3.996 5.125 5.75L369 463c-.518 5.01-1.404 9.212-3 14-.169 2.75-.169 2.75 0 5h3l.883-2.703c3.765-10.75 3.765-10.75 7.43-13.11L380 465l-.687-2.875C378.202 454.269 382.39 446.72 386 440c-3.228-2.152-4.284-2.2-8-2m14 5c1.27 3.807 2.572 4.187 6 6.125 4.954 2.829 4.954 2.829 6 3.875.557 5.685-.414 8.57-4 13-2.453 1.226-3.617.96-6.312.625l-2.422-.3A92 92 0 0 1 384 465c3.441 4.34 7.668 6.026 13 7 4.536-.77 7.144-2.404 10-6 1.928-4.499 1.479-10.085.313-14.75-2.584-4.43-6.491-6.766-11.313-8.25z"/><path fill="#FA6B1F" d="m717.946 401.839 2.601-.03 2.719-.012 2.894-.017q3.015-.014 6.03-.02c3.038-.01 6.074-.041 9.11-.073 14.635-.08 30.46.051 42.024 10.391 6.182 6.525 8.134 12.38 7.93 21.3-.942 9.72-4.909 16.837-12.18 23.227-2.87 1.93-5.87 3.097-9.074 4.395l2.816 1.066c8.512 3.349 14.912 6.638 19.832 14.602 1.699 4.187 1.848 7.67 1.79 12.144l-.023 2.428c-.168 6.02-1.033 10.676-4.415 15.76l-1.25 2.098c-5.545 8.428-14.293 12.311-23.75 14.902-20.016 3.64-40.656 2-61 2V403c10.134-1.126 10.134-1.126 13.946-1.161M736 427a72 72 0 0 0-.133 4.586l-.004 2.82.012 2.969-.012 2.945.004 2.828.004 2.6c.04 2.421.04 2.421 1.129 5.252 10.023.504 10.023.504 18.938-3.5 1.255-1.466 1.255-1.466 1.062-3.5h2c.861-7.186.861-7.186-1.125-13.875-3.906-3.418-17.5-7.5-21.875-3.125m0 48q-.042 6.469-.062 12.937l-.026 3.733-.01 3.545-.016 3.285c-.17 2.44-.17 2.44 1.114 3.5 12.309 1.087 12.309 1.087 23-4 3.212-3.626 3.53-7.1 3.344-11.785-.559-3.6-1.886-5.568-4.344-8.215-5.337-2.822-9.463-3.4-15.437-3.188l-2.217.042c-1.783.034-3.564.088-5.346.146"/><path fill="#178B3B" d="M599.953 409.434c1.387 1.144 2.724 2.348 4.047 3.566-.521 4.405-2.055 6.747-4.875 10.125l-2.117 2.57L595 428l-1.445 1.867C592 431 592 431 589.637 430.847c-2.786-.895-5.215-2.088-7.824-3.41-5.46-2.327-10.208-2.955-16.063-3l-2.255-.043c-7.694.138-14.153 3.53-19.827 8.645-7.36 8.653-10.064 19.627-9.98 30.711.005.786.01 1.571.017 2.38.253 12.273 3.426 22.734 12.045 31.745 11.182 7.311 20.29 6.565 33.25 5.125v-24h-16v-20q8.73-.036 17.462-.055 2.973-.008 5.945-.02c2.843-.013 5.685-.018 8.527-.023l2.702-.015c2.121 0 4.243.05 6.364.113 1.662 1.662 1.204 3.672 1.272 5.96l.098 3.207q.164 7.298.255 14.595.062 3.848.184 7.694c.116 3.695.166 7.386.203 11.083l.147 3.46c-.018 7.814-.018 7.814-3.34 11.27A61 61 0 0 1 595 521l-3.25 1.688L588 524l-2.805 1.063c-16.057 5.44-34.924 4.811-50.383-2.25-15.322-8.37-24.426-21.386-29.421-37.899-1.603-6.052-1.89-11.802-1.829-18.039l.026-3.304c.384-18.541 5.474-34.421 18.619-48.063 20.025-17.98 55.31-22.542 77.746-6.074"/><path fill="#F3F2F3" d="M489 471c1.188 1.563 1.188 1.563 2 4-.639 1.648-1.299 3.29-2.074 4.879-1.09 2.497-1.75 4.983-2.426 7.621-1.144 4.385-2.714 8.332-4.5 12.5a263 263 0 0 0-1.5 5.563c-1.075 4.137-2.512 7.641-4.5 11.437-.7 2.736-.7 2.736-1 5h-2l.152 2.152c-.178 3.337-1.122 5.421-2.59 8.41-1.849 3.75-1.849 3.75-3.097 7.715L467 542c-2.74 1.37-4.97 1.126-8 1l-2-1v-2c-3.524 2.546-3.524 2.546-6 6h-2l-.875 2.313C447 551 447 551 445 554h-2v3h-2l-.875 2.313C439 562 439 562 437 565h-2l-.715 2.113c-1.533 3.444-3.542 6.095-5.848 9.074-2.981 3.74-2.981 3.74-5.437 7.813h-2l-.875 2.313C419 589 419 589 417 592h-2v3h-2l-.75 2.125c-1.422 3.27-3.122 6.016-5.25 8.875h-2l-2 7 3.471.136c38.404 1.53 38.404 1.53 56.529 3.239l3.545.308c6.972.713 14.324 1.697 20.455 5.317.892 2 .892 2 1 4-3.291 4.63-7.302 5.059-12.63 5.984-28.992 4.63-59.223 4.223-88.489 4.205q-3.148-.002-6.297 0c-22.239-.002-44.403-.48-66.584-2.189l-3.103-.221c-5.643-.445-10.985-1.283-16.46-2.716l-2.11-.514c-5.068-1.29-5.068-1.29-7.327-3.549-.125-2.625-.125-2.625 0-5 8.316-3.552 16.151-4.914 25.125-5.687l3.87-.365c13.333-1.226 26.606-2.18 40.005-1.948l-1.5-2.875C351 608 351 608 351 606h-2c-1.508-1.68-1.508-1.68-3.125-3.875l-1.633-2.18C343 598 343 598 343 596h-2l-2-5h-2v-3h-2v-2h-2c-4-5.412-4-5.412-4-8h-2l-2-3-2.225.2c-27.694 2.425-27.694 2.425-40.775.8l-2.343-.286C265.796 573.96 253.9 571.414 243 562v-2h-2c-2-3-2-3-2-6h-2c-3.745-10.768-1.715-19.419 2-30h2v-4h2l.36-1.77c1.045-3.64 3.062-6.48 5.64-9.23 2.625-1.062 2.625-1.062 5-1l3 2c-.535 2.318-1.144 4.32-2.125 6.5-1.308 5.233-.51 10.19.125 15.5h2v3h2v2l1.773.848C263 539 263 539 264.727 540.184c15.447 10.203 37.558 7.202 54.898 5.504l3.683-.356c8.081-.857 15.817-2.345 23.692-4.332l5.188-1.246c16.944-4.126 16.944-4.126 33.328-10.031a943 943 0 0 1 13.28-5.477l3.466-1.4q3.51-1.418 7.023-2.828c4.888-1.98 9.723-3.952 14.418-6.358C427 512 427 512 429 512v-3l-1.875-.875C425 507 425 507 423 505v-4l2.422-.883c6.59-2.46 12.892-5.158 19.14-8.383 3.485-1.758 7.006-3.414 10.544-5.06 12.236-5.696 12.236-5.696 23.609-12.928 3.561-2.6 5.886-3.165 10.285-2.746m-4 2-2.316 1.469C464.586 485.793 445.706 493.94 426 502v2c1.564 1.285 1.564 1.285 3.5 2.5 1.969 1.281 1.969 1.281 3.5 2.5v2c-26.85 13.33-54.477 24.227-83.618 31.403-1.72.431-3.435.882-5.147 1.344-7.417 1.965-14.734 3.137-22.36 3.94l-3.565.384c-9.49.963-18.786 1.302-28.31.929l-3.2-.023c-10.175-.354-21.399-4.2-29.8-9.977-2.187-2.937-2.187-2.937-4-6l-1.098-1.793c-1.203-2.942-1.167-5.411-1.152-8.582l-.016-3.336c.274-3.387 1.061-6.123 2.266-9.289-4.885 4.31-7.881 9.317-11 15l-1.27 2.191c-3.7 7.1-4.253 14.965-1.847 22.618 5.23 11.379 13.261 15.817 24.578 20.129 6.795 2.411 13.375 3.188 20.59 3.195l1.976.002q2.076.002 4.151-.005c2.157-.005 4.314.002 6.47.011 6.93.01 13.731-.186 20.62-1.012 8.501-.967 8.501-.967 12.232 1.574 2.174 2.633 3.798 5.339 5.5 8.297a286 286 0 0 0 4.688 6.125l2.535 3.309c4.14 5.353 8.44 10.579 12.726 15.816 2.543 3.11 5.02 6.267 7.488 9.438 4.84 6.48 4.84 6.48 11.946 9.71 5.38.21 8.95-.551 13.617-3.398 2.341-2.443 2.341-2.443 4.438-5.437l1.254-1.695q1.394-1.884 2.774-3.777a609 609 0 0 1 5.022-6.728 2706 2706 0 0 0 20.452-27.498Q427.43 570.402 433 563a4192 4192 0 0 0 13.688-18.312l1.857-2.483 1.717-2.318 1.53-2.056c1.383-1.924 1.383-1.924 2.208-4.831 2.824 2.214 5.493 4.434 8 7 6.792-14.455 12.179-29.173 17.121-44.337a597 597 0 0 1 2.692-7.936l.86-2.51a692 692 0 0 1 1.638-4.708c.62-1.818 1.162-3.662 1.689-5.509z"/><path fill="#178C3D" d="M679.375 445.75A85 85 0 0 1 683 449l1.863 1.742c9.035 9.325 11.473 21.196 11.52 33.798-.267 12.287-4.996 23.466-13.383 32.46-8.301 7.847-19.406 11.046-30.687 11.438-12.865-.593-22.877-5.169-31.747-14.45C611.83 502.9 609.896 488.696 611 475c1.674-8.35 4.633-15.385 10-22l1.52-1.895c13.568-15.153 40.433-16.847 56.855-5.355M647 466c-5.047 7.066-3.401 19.788-2.625 27.938A36.3 36.3 0 0 0 647 502h2v2c2.76 1.804 3.89 2.013 7.25 1.625L659 505v-2h2c3.867-5.8 4.34-11.109 4.313-17.875l.048-2.316c.006-6.749-1.595-11.946-5.173-17.747-4.877-4.597-8.763-3.61-13.188.938"/><path fill="#E41922" d="M450.586 523.488c2.937 1.84 4.335 3.744 6.226 6.637l1.833 2.758L460 535l-1 2-5-4-.832 1.758c-1.143 2.194-2.407 4.11-3.856 6.113l-1.601 2.219-1.711 2.347-1.773 2.446c-4.118 5.655-8.35 11.204-12.645 16.726-3.06 3.978-5.972 8.062-8.894 12.141a685 685 0 0 1-14.722 19.753 524 524 0 0 0-8.755 11.68l-1.909 2.622a996 996 0 0 0-3.634 5.04l-1.672 2.303-1.463 2.037c-3.032 3.59-6.055 5.428-10.732 6.159-4.63.29-7.942.155-11.613-2.844-10.15-10.15-18.57-22.223-27.231-33.629a491 491 0 0 0-9.371-11.89C327 572.253 327 572.253 327 570l2.142-.408c40.095-7.773 82.854-21.667 116.44-45.494C448 523 448 523 450.586 523.488"/><path fill="#FA6120" d="M957 443c6.367 5.271 8.987 12.168 9.81 20.274.382 5.486.332 10.979.323 16.476l.003 3.923q.002 4.08-.006 8.159-.006 5.237.004 10.474c.004 3.336.001 6.671-.001 10.007l.006 3.81-.01 3.49-.002 3.087C967 525 967 525 966 526c-1.915.1-3.833.13-5.75.133l-3.531.004-3.719-.012-3.719.012-3.531-.004-3.266-.004C940 526 940 526 939 525a93 93 0 0 1-.126-5.175l-.012-3.348-.003-3.649-.058-7.578c-.03-4-.053-8.001-.051-12.002a1234 1234 0 0 0-.078-11.545l.021-3.624c.118-6.733.118-6.733-3.09-12.33-4.34-2.917-7.583-2.606-12.603-1.749-3.923 1.38-7.027 3.068-10 6-1.426 4.193-1.284 8.188-1.16 12.582l-.017 3.666c-.009 3.857.051 7.709.115 11.565.015 3.872.017 7.744.018 11.617q.008 3.613.053 7.225l.038 3.278.044 2.9C912 525 912 525 911 526c-1.842.1-3.687.13-5.531.133l-3.395.004-3.574-.012-3.574.012-3.395-.004-3.138-.004C886 526 886 526 885 525a164 164 0 0 1-.19-6.903l-.025-2.188q-.026-2.36-.045-4.721-.032-3.739-.077-7.478-.088-7.95-.163-15.897-.088-9.184-.192-18.369-.038-3.677-.068-7.355l-.05-4.539-.039-3.988c-.064-3.546-.064-3.546-.788-6.909L883 444c5.025-5.025 14.743-4.288 21.434-4.559C907 440 907 440 908.848 442.09c1.374 3.471 1.37 6.208 1.152 9.91l2.781-2.082 3.719-2.73 1.82-1.37c11.47-8.358 25.982-10.014 38.68-2.818"/><path fill="#FA621F" d="M862.688 444.625c7.602 5.45 12.195 12.304 14.312 21.375.364 3.452.377 6.845.313 10.313l.01 2.666c-.039 4.582-.198 6.771-2.323 11.021h-49c2.878 8.634 3.938 11.292 11 16 2.553.252 4.946.38 7.5.375l2.161.004c5.492-.109 9.975-1.222 15.007-3.504 2.591-.972 4.587-1.031 7.332-.875 5.556 10.374 5.556 10.374 6 16-13.012 8.722-27.446 11.392-43 10-11.669-2.35-21.025-8.392-28-18-7.25-11.44-7.4-26.007-5.57-39.066 3.004-11.554 11.034-21.49 21.226-27.5 13.424-6.93 30.006-6.663 43.032 1.191m-31 21.25c-.871 2.69-.311 4.407.312 7.125q3.969.04 7.938.063l2.287.025c1.925.009 3.85-.036 5.775-.088 1.3-1.092 1.3-1.092 1.313-3.75-.395-4.106-1.17-5.578-4.313-8.25-5.793-1.258-9.877-.032-13.312 4.875"/><path fill="#FA561D" d="M1097 444c5.794 4.708 9.628 10.634 11 18 .299 3.888.324 7.766.344 11.664l.044 3.364c.062 4.73.102 9.46.144 14.19.033 3.461.079 6.922.124 10.384l.016 3.235.04 3.025.023 2.648c.297 2.79 1.16 4.924 2.265 7.49.438 2.625.438 2.625 0 5-4.94 4.447-12.959 5.006-19.375 5.438-3.625-.438-3.625-.438-6.062-2.563-1.654-3.042-2.244-5.445-2.563-8.875a467 467 0 0 0-7.465 4.535l-2.473 1.528-2.464 1.535c-7.394 3.991-15.847 4.959-24.008 2.75-6.155-2.763-11.112-8.065-13.59-14.348-.86-6.637-1.158-13.153 2.438-19 9.078-11.322 23.759-14.668 37.562-16.312 2.332-.255 4.663-.48 7-.688-.06-2.105-.149-4.21-.25-6.312l-.14-3.551c-.335-3.156-.335-3.156-2.305-5.028-5.259-2.53-11.641-1.858-17.137-.312-3.585 1.397-6.786 2.962-10.043 5.015C1048 468 1048 468 1046.137 467.938c-3.271-1.435-4.503-3.806-6.45-6.75l-2.175-3.207c-1.512-2.98-1.512-2.98-1.54-5.148 3.51-6.257 12.512-9.209 18.966-11.207A277 277 0 0 1 1061 440l1.906-.528c11.14-2.51 24.377-1.518 34.094 4.528m-28.125 52.313-2.07.738c-2.148.946-2.148.946-3.805 3.949-.167 2.625-.167 2.625 0 5 2.78 1.39 4.919 1.185 8 1 3.343-1.207 3.947-1.92 6-5 .08-2.332.088-4.668 0-7-3.418 0-5.063.177-8.125 1.313"/><path fill="#F8F8F7" d="M1094 441c4.75.875 4.75.875 7 2v2l4 2v2h2c3.734 6.862 4.6 12.635 4.61 20.379l.05 3.19c.048 3.331.07 6.662.09 9.993q.042 3.407.09 6.815.109 8.31.16 16.623l2.34-1.48c2.927-1.673 4.46-1.872 7.785-1.77.848.015 1.696.03 2.57.047C1127 503 1127 503 1130 504c2.34-8.58 2.614-17.16 3-26 6.233-2.58 10.491-3.607 17.25-2.437 2.703.703 2.703.703 4.75-.563 6.412-.545 11.391-.452 17 3h2l1-14h2l1-3c5.014-2.006 8.75-2.155 14-1 1.996 1.996 1.41 5.817 1.563 8.563l.13 2.154q.159 2.64.307 5.283l2-1a94 94 0 0 1 5.813-.25l3.144-.078c3.469.374 5.264 1.252 8.043 3.328 2.455 3.682 2.265 6.434 2.188 10.688-.01.745-.018 1.491-.027 2.26A568 568 0 0 1 1215 498l-.059 2.314a397 397 0 0 1-.254 6.561l-.175 3.93c-.512 3.195-.512 3.195-1.93 5.078-3.965 2.8-7.871 2.67-12.582 2.117-3.062-1.437-3.062-1.437-5-4-.651-4.245-.355-7.936 1-12 .225-2.226.408-4.456.563-6.687l.253-3.575L1197 489c-2.605.955-3.782 1.624-5.191 4.055-1.309 4.765-1.56 9.613-1.932 14.527l-.217 2.363-.168 2.141c-.62 2.414-1.564 3.37-3.492 4.914-5.163 1.304-10.248 1.693-15-1v-6l-1.758 1.242c-7.581 5.23-13.054 7.126-22.242 6.758l.105 2.266.082 2.984.106 2.953c-.335 3.2-1.108 4.484-3.293 6.797-3.68 1.636-8.065 1.187-12 1l-3-2a70 70 0 0 1-.187-8.125l.04-2.285A496 496 0 0 1 1129 516l-3 2c-2.191.23-2.191.23-4.562.188l-2.38-.02C1117 518 1117 518 1115 517l1 7c-1.812 1.563-1.812 1.563-4 3l-3-1 2-2c-.271-3.051-.812-5.566-2.03-8.38-1.024-2.767-1.227-4.789-1.241-7.726l-.031-3.005-.007-3.217-.076-6.8q-.042-5.34-.071-10.678c-.022-3.445-.062-6.89-.103-10.335v-3.192c-.12-8.975-1.75-16.512-7.441-23.667-1.94-1.758-3.95-3.369-6-5zm59 48.438c-3.563 4.565-4 9.892-4 15.562 2.958-.32 4.547-.518 6.621-2.727 1.577-2.6 1.895-4.383 2.129-7.398l.234-2.633c.186-2.28.186-2.28-.984-4.242-2.14-.195-2.14-.195-4 1.438"/><path fill="#FA5C1E" d="M1013 416c.11 8.407-.085 16.641-1 25l1.728-.016q3.855-.029 7.71-.046l2.72-.026 2.588-.01 2.396-.016C1031 441 1031 441 1032 442c.127 2.492.185 4.945.188 7.438l.037 2.103c.005 1.821-.103 3.642-.225 5.459-2 2-2 2-3.88 2.227-.743-.01-1.487-.02-2.253-.032l-2.441-.02-2.551-.05-2.574-.027c-2.1-.024-4.2-.06-6.301-.098q.067 8.594.208 17.188.042 2.921.063 5.842c.021 2.806.068 5.61.12 8.415l.003 2.624c.13 5.394.88 8.735 4.606 12.931 3.479.937 3.479.937 7.25.875l6.75.125v17c-5.886 2.532-10.556 3.464-16.937 3.313l-2.398-.04c-7.934-.197-15.103-.395-21.052-6.264-5.639-7.024-6.183-15.948-6.004-24.583l.018-3.182c.022-3.31.072-6.62.123-9.932q.03-3.393.055-6.787.066-8.262.195-16.525l-2.336.07-3.039.055-3.023.07C974 460 974 460 972 458c-.172-2.727-.232-5.34-.187-8.062l.001-2.26c.046-5.538.046-5.538 1.186-6.678 2.016-.234 4.038-.413 6.063-.562l3.347-.254L985 440l.043-3.832.144-4.98.018-2.526c.22-6.102.22-6.102 2.815-8.63 3.797-1.315 7.517-2.093 11.48-2.72l2.262-.392c3.785-.633 7.386-1.08 11.238-.92"/><path fill="#EDF5E9" d="M421.672 327.703 423 329v2h2l2 5h2c2 3 2 3 2 6h2c1.765 3.088 2 4.233 2 8h2l3 12c3.635.909 5.271.839 8.809.273 12.92-1.612 12.92-1.612 17.816 1.54 4.264 3.927 4.662 6.552 4.938 12.187.239 5.09.239 5.09 1.437 10 .202 2.31.364 4.623.5 6.938.215 4.575.215 4.575 1.008 9.066.734 2.979.735 5.934.867 8.996.321 6.314 1.099 12.452 2.125 18.688a216 216 0 0 1 2.375 21.75l.186 2.672c.23 4.839.192 8.01-3.061 11.89-6.633 5.988-15.181 9.979-22.98 14.242-5.417 2.963-10.784 6.009-16.145 9.07l-2.618 1.49q-2.472 1.41-4.93 2.845a214 214 0 0 1-4.615 2.608c-4.612 2.638-6.73 4.635-8.712 9.745-2.724 5.968-5.116 8.328-11 11l-2.535 1.398c-5.995 3.123-10.516 4.073-17.25 3.387-3.947.264-6.85 1.588-10.465 3.126-4.688 1.857-9.55 3.001-14.437 4.214l-5.95 1.508-2.819.708c-2.11.547-4.205 1.154-6.294 1.776-3.524.957-6.938 1.454-10.562 1.883-4.14.493-8.095 1.09-12.153 2.04-6.498 1.328-13.015 1.332-19.62 1.33-2.148.005-4.294.041-6.442.08-10.164.082-21.933-.396-30.223-7.013-3.295-3.57-4.503-5.536-4.48-10.332l.005-2.896.038-3.021.001-2.987c.045-7.412.045-7.412.679-10.964.645-4.12.72-8.162.788-12.327l.056-2.614q.086-4.117.163-8.233.103-5.42.219-10.84l.04-2.485c.074-3.43.234-6.69.748-10.088.689-5.096.649-10.142.669-15.279l.072-6.822c.035-3.564.065-7.127.078-10.691.015-3.455.056-6.908.1-10.362l-.006-3.22c.1-6.052.473-9.707 4.58-14.276 1.7-1.368 1.7-1.368 3.398-2.23l1.929-.99 2.048-.967 2.162-1.038c13.404-6.18 27.944-6.677 42.463-7.775l-.07-2.168C322.686 365.357 324.905 354 331 342h2l.313-1.75c.796-2.607 1.878-4.224 3.687-6.25h2l2-4h2v-2h2v-2l4-1v-2c24.4-13.368 50.168-12.312 72.672 4.703m-82.05 6.34C327.41 348.783 326.286 363.615 326 382l-3.05.332c-3.823.424-7.64.889-11.456 1.365a384 384 0 0 1-4.89.563c-11.801 1.294-26.521 3.56-35.275 12.435-1.812 3.143-1.802 5.608-1.93 9.228l-.084 2.092c-.09 2.292-.16 4.583-.23 6.876q-.088 2.432-.18 4.864c-.16 4.295-.304 8.59-.443 12.885-.141 4.243-.298 8.485-.454 12.727-.667 18.345-1.241 36.693-1.801 55.042-.21 6.805-.457 13.608-.73 20.411.806 4.9 3.39 7.546 7.34 10.57 28.85 14.2 70.366.401 99.183-8.39a161 161 0 0 0 5-2c-2.53-2.999-5.19-4.067-8.82-5.453l-3.54-1.366-1.865-.708a734 734 0 0 1-5.72-2.208 972 972 0 0 0-16.547-6.296L336 503.25l-2.024-.704c-5.252-2.037-6.762-4.593-8.976-9.546-1.08-4.675-.208-8.925 1.652-13.281a396 396 0 0 0 5.258-13.45l.775-2.075q1.593-4.27 3.181-8.543 1.176-3.16 2.357-6.319l.71-1.917a180 180 0 0 1 3.636-9.01c1.286-3.061 2.236-6.008 3.103-9.206 5.541-18.164 5.541-18.164 13.293-22.707 4.815-2.25 9.81-3.877 14.885-5.44 6.362-2.125 12.367-5.171 18.436-8.009 6.672-2.972 11.712-4.299 18.902-2.043 6.272 4.46 9.362 12.784 12.71 19.54l1.331 2.68a2295 2295 0 0 1 2.748 5.571c1.401 2.84 2.823 5.669 4.246 8.498q1.34 2.718 2.675 5.438l1.294 2.547c2.919 6.034 2.995 9.204.836 15.609l-1.2 3.02-1.357 3.436L433 461l-1.518 3.797a4134 4134 0 0 1-5.554 13.798q-1.194 2.954-2.381 5.909l-1.411 3.494c-.887 2.344-1.614 4.559-2.136 7.002 29.385-13.88 29.385-13.88 55-33 1.495-14.81-1.204-30.126-2.875-44.812q-.611-5.496-1.218-10.99-.396-3.567-.807-7.13c-.614-5.367-1.173-10.718-1.53-16.109l-.206-2.789a174 174 0 0 1-.285-5.054c-.302-4.09-.937-6.46-4.01-9.116-2.98-1.942-4.118-2.626-7.569-2.437l-2.555.128c-5.675.595-11.312 1.4-16.945 2.309l-.262-1.766C434.036 348.47 426.128 334.412 413 325c-10.458-6.152-20.105-9.58-32.25-9.5l-3.073.02c-15.353.373-27.555 7.367-38.056 18.523m55.503 60.59-1.959.831a898 898 0 0 0-6.166 2.661q-3.027 1.294-6.056 2.584a507 507 0 0 0-4.005 1.74c-3.277 1.437-6.55 2.795-9.92 4.003-6.419 2.204-6.419 2.204-11.566 6.4-1.068 2.347-1.748 4.668-2.453 7.148a367 367 0 0 1-2.092 5.173 412 412 0 0 0-2.33 5.745q-1.573 3.947-3.156 7.89c-2.235 5.586-4.442 11.174-6.465 16.84-1.409 3.937-2.95 7.795-4.57 11.649l-1.342 3.215a706 706 0 0 1-2.774 6.523c-3.327 7.774-3.327 7.774-2.271 15.965 2.74 4.641 6.148 6.304 11.063 8.063l2.014.763c1.968.741 3.944 1.461 5.923 2.174l3.113 1.129q2.694.972 5.39 1.933c3.18 1.194 6.255 2.57 9.329 4.008 2.675 1.147 5.403 2.023 8.168 2.93l3.621 1.324 3.817 1.364 1.908.72c6.121 2.146 10.357 1.509 16.295-.861a233 233 0 0 0 3.609-1.797l1.852-.871c7.549-3.775 9.077-10.61 11.836-18.067 3.963-10.606 8.156-21.1 12.505-31.554a303 303 0 0 0 4.198-10.645c1.36-3.613 1.36-3.613 2.547-5.8 1.088-2.427.997-4.163.813-6.813-.873-2.329-.873-2.329-2.164-4.605-1.904-3.62-3.743-7.246-5.484-10.946-5.979-12.665-5.979-12.665-12.227-25.199l-1.492-2.922c-1.961-2.796-3.506-3.96-6.633-5.328-4.952-.43-8.342.684-12.875 2.633"/><path fill="#F5FBF8" d="m602 407 2.938 2c2.39 2.318 3.23 3.78 4.062 7-1.047 2.676-1.047 2.676-2.75 5.313l-1.672 2.675L603 426h-2v2h-2l-.875 1.875C597 432 597 432 595 434c-6.091.786-9.353.028-14.687-3-7.31-3.94-14.784-4.64-22.801-2.262-4.292 1.964-7.357 4.746-10.512 8.262l-1.504 1.395c-8.735 9.373-6.763 24.77-6.41 36.445.331 5.12 1.4 8.919 3.976 13.37 1 1.91 1.494 3.688 1.938 5.79h2v2l2.063.813a99 99 0 0 1 6.093 2.718c4.071 1.75 7.896 2.015 12.282 2.156L575 502v-20h-9c-3.22-.959-4.631-1.631-7-4-.446-3.147-.324-6.325-.312-9.5l-.05-2.668-.001-2.55-.01-2.343L559 459c3.113-2.075 3.8-2.251 7.332-2.259l2.64-.019 2.84.012 2.926-.005q3.06-.002 6.122.01c3.128.011 6.255 0 9.382-.012q2.973 0 5.946.007l2.84-.012 2.64.02c.766 0 1.532.002 2.321.004C606 457 606 457 609 459c.7 2.663.777 5.24 1 8l.586-1.645.789-2.168.773-2.144C613 459 613 459 615 456h2v-3h2l2-4h2v-2c12.181-10.063 25.883-10.653 41-10 9.515.91 18.562 5.94 25 13v2h2c1.402 1.906 1.402 1.906 2.938 4.5l1.527 2.531c1.817 3.515 3.146 7.264 4.535 10.969l1-66h2l1 121c7.21.841 7.21.841 14.336 1.114h2.85l2.974-.016 3.123-.005c3.26-.005 6.52-.018 9.78-.03q3.334-.009 6.67-.014 8.133-.017 16.267-.049c-3.215 3.215-6.489 3.126-10.889 3.161l-2.932.03-3.148.012-3.25.017q-3.399.014-6.798.02c-3.47.01-6.94.041-10.409.072q-3.302.01-6.605.016l-3.148.038-2.932-.01-2.575.011c-2.876-.456-4.24-1.341-6.314-3.367a45 45 0 0 1-.61-7.512c-.016-.728-.032-1.456-.05-2.206-.048-2.324-.07-4.646-.09-6.97q-.042-2.364-.09-4.728c-.074-3.861-.123-7.722-.16-11.584l-.588 2.506-.79 3.283-.777 3.256c-1.02 3.567-2.56 6.047-4.845 8.955l-1.766 2.871C685.157 522.382 675.232 528.227 665 530c-14.558 1.082-29.6 1.34-41.36-8.492-5.074-4.664-9.635-9.247-12.64-15.508l-.297 1.828-.453 2.422-.422 2.39c-2.21 6.3-9.243 9.45-14.828 12.36-9.655 4.092-17.972 5.233-28.426 5.295-1.974.017-3.95.061-5.924.105-12.766.084-23.783-2.539-34.65-9.4l-3.062-1.687L521 518v-2h-2v-2h-2v-2h-2l-2-5h-2v-3h-2c-1.765-3.088-2-4.233-2-8h-2c-3.393-9.745-4.617-18.435-4.467-28.716.03-2.179.02-4.355.008-6.534.011-7.145.33-13.196 3.459-19.75.574-1.663 1.14-3.329 1.688-5 .25-.763.502-1.526.761-2.312L507 432h2v-4h2v-3h2v-3h2c.264-.583.529-1.165.8-1.766 5.5-10.247 17.406-15.945 27.99-19.625 18.666-5.398 41.76-4.964 58.21 6.391m-82.344 11.434c-14.56 16.72-16.966 36.255-15.915 57.628C505.025 490.64 512.251 505.12 523 515c15.202 12.101 32.116 14.488 51 13 11.394-1.642 22.692-5.692 31-14a88 88 0 0 0 .13-5.055l.009-3.266-.006-3.554.003-3.62q0-3.8-.006-7.597-.005-5.836.007-11.674 0-3.68-.004-7.359l.006-3.554-.01-3.266-.002-2.891c.115-2.144.115-2.144-1.127-3.164-3.03-.089-6.037-.115-9.066-.098l-2.754.005c-2.914.005-5.828.018-8.742.03q-2.957.009-5.913.014c-4.841.01-9.683.03-14.525.049v20h16v24c-21.223 2.358-21.223 2.358-32-4-7.93-6.689-11.946-15.836-13-26-.971-13.69-.054-26.566 8.293-38.062 5.006-5.683 11.032-9.817 18.71-10.31q2.28-.059 4.56-.065l2.41-.01c6.168.124 11.005 1.449 16.547 4.256 2.66 1.278 4.514 2.135 7.48 2.191 2.483-1.936 2.483-1.936 4.625-4.687.755-.891 1.51-1.782 2.29-2.7L601 421l1.762-2.184c1.433-1.779 1.433-1.779 1.426-4.191-2.891-6.39-9.617-8.978-15.813-11.437-23.298-8.716-51.501-2.632-68.719 15.246m100.977 34.453c-8.892 11.508-10.826 23.928-9.32 38.043 2.15 13.55 7.83 23.282 19 31.507 10.83 6.649 23.15 6.801 35.187 4.063 10.277-2.8 18.285-8.607 23.996-17.621 7.212-13.806 8.918-28.065 4.543-43.133-4.135-10.927-10.877-18.597-21.316-23.703-6.4-2.452-12.298-3.41-19.098-3.356l-2.252.018c-12.415.273-22.166 5.19-30.74 14.182"/><path fill="#43A03A" d="M411.176 323.898c11.536 7.9 20.4 19.5 24.469 32.989.598 3.558.06 6.591-.645 10.113-2.942 1.426-4.925 2-8.227 1.98-3.886.02-7.277.574-11.086 1.332-7.61 1.445-15.24 2.397-22.937 3.25-8.622.959-17.192 2.003-25.75 3.438q-3.654.61-7.31 1.207-2.493.406-4.983.828c-4.638.756-9.007 1.103-13.707.965l-1-2-2 4-6-2v2l-6 1c.3-20.23 1.694-36.198 16.125-51.687 19.351-18.394 46.293-21.019 69.05-7.415M357 342v2h-2c-8.425 9.748-10.72 20.435-10 33 6.43.224 12.354-.105 18.656-1.371 4.224-.795 8.463-1.404 12.719-2.004l2.635-.374q7.36-1.034 14.725-2.027l5.992-.812q3.924-.532 7.85-1.054l3.622-.49 3.245-.435c2.537-.302 2.537-.302 4.556-1.433-1.179-7.31-3.367-14.17-8-20h-2l-.707-2.27c-1.536-3.243-3.034-4.41-5.98-6.418-.83-.58-1.658-1.162-2.512-1.761-13.79-7.635-31.126-4.46-42.801 5.449"/><path fill="#FDF6F0" d="M489 471c1.188 1.563 1.188 1.563 2 4-.639 1.648-1.299 3.29-2.074 4.879-1.09 2.497-1.75 4.983-2.426 7.621-1.144 4.385-2.714 8.332-4.5 12.5a263 263 0 0 0-1.5 5.563c-1.075 4.137-2.512 7.641-4.5 11.437-.7 2.736-.7 2.736-1 5h-2l.152 2.152c-.178 3.337-1.122 5.421-2.59 8.41-1.849 3.75-1.849 3.75-3.097 7.715L467 542c-2.74 1.37-4.97 1.126-8 1l-2-1v-2c-3.524 2.546-3.524 2.546-6 6h-2l-.875 2.313C447 551 447 551 445 554h-2v3h-2l-.875 2.313C439 562 439 562 437 565h-2l-.715 2.113c-1.533 3.444-3.542 6.095-5.848 9.074-2.981 3.74-2.981 3.74-5.437 7.813h-2l-.875 2.313C419 589 419 589 417 592h-2v3h-2l-.75 2.125c-1.422 3.27-3.122 6.016-5.25 8.875h-2l-2 7 3.82.168q7.056.312 14.112.632l6.093.27q4.394.194 8.788.395l2.725.117A169 169 0 0 1 454 616l-1 2-3.258-.184c-18.567-.987-37.155-1.369-55.742-1.816v2l-2-1a1102 1102 0 0 1 13.625-18.5 2006 2006 0 0 0 13.375-18c4.305-5.855 8.63-11.693 13-17.5 4.574-6.08 9.11-12.188 13.625-18.312l1.832-2.483 3.221-4.374A157 157 0 0 0 454 533c3.38 1.449 5.459 3.373 8 6 6.24-15.17 12.048-30.362 17-46 .29-.907.578-1.815.876-2.75A2802 2802 0 0 0 485 474l-2.316 1.469c-13.029 8.152-26.33 14.954-40.434 21.031l-1.914.829a1086 1086 0 0 1-5.445 2.327l-3.218 1.37C429 502 429 502 426 502v2l1.75.813c2.283 1.204 4.224 2.595 6.25 4.187-1 3-1 3-2.86 4.208l-2.46 1.175-2.776 1.335-3.029 1.407-3.126 1.47c-22.609 10.479-46.172 18.85-70.367 24.808-1.72.431-3.435.882-5.147 1.344-7.417 1.965-14.734 3.137-22.36 3.94l-3.565.384c-9.49.963-18.786 1.302-28.31.929l-3.2-.023c-10.823-.376-22.124-4.501-30.8-10.977-2.25-3-2.25-3-4-6l-1.098-1.781c-1.214-2.987-1.13-5.505-1.09-8.719l.02-3.406c.138-2.55.425-4.668 1.168-7.094-10.81 16.105-10.81 16.105-12 35 2.244 7.381 6.535 12.839 13 17 3.914 1.934 7.889 3.536 12 5l2.93 1.074c5.657 1.706 11.238 2.053 17.12 2.059l1.977.002q2.076 0 4.15-.005c2.159-.005 4.316.003 6.474.013 6.92.012 13.692-.191 20.567-1.065 8.461-1.012 8.461-1.012 12.505 1.848 2.432 2.883 4.324 5.849 6.277 9.074 1.632 2.231 3.35 4.393 5.063 6.563q1.25 1.63 2.496 3.265c3.409 4.448 6.919 8.814 10.441 13.172l-3 2c-5.802-5.645-5.802-5.645-8-9v-2h-2l-2-5h-2v-3h-2v-2h-2c-4-5.412-4-5.412-4-8h-2l-2-3-2.225.2c-27.694 2.425-27.694 2.425-40.775.8l-2.343-.286C265.796 573.96 253.9 571.414 243 562v-2h-2c-2-3-2-3-2-6h-2c-3.745-10.768-1.715-19.419 2-30h2v-4h2l.36-1.77c1.045-3.64 3.062-6.48 5.64-9.23 2.625-1.062 2.625-1.062 5-1l3 2c-.535 2.318-1.144 4.32-2.125 6.5-1.308 5.233-.51 10.19.125 15.5h2v3h2v2l1.773.848C263 539 263 539 264.727 540.184c15.447 10.203 37.558 7.202 54.898 5.504l3.683-.356c8.081-.857 15.817-2.345 23.692-4.332l5.188-1.246c16.944-4.126 16.944-4.126 33.328-10.031a943 943 0 0 1 13.28-5.477l3.466-1.4q3.51-1.418 7.023-2.828c4.888-1.98 9.723-3.952 14.418-6.358C427 512 427 512 429 512v-3l-1.875-.875C425 507 425 507 423 505v-4l2.422-.883c6.59-2.46 12.892-5.158 19.14-8.383 3.485-1.758 7.006-3.414 10.544-5.06 12.236-5.696 12.236-5.696 23.609-12.928 3.561-2.6 5.886-3.165 10.285-2.746"/><path fill="#EFF9F2" d="m602 407 2.938 2c2.39 2.318 3.23 3.78 4.062 7-1.047 2.676-1.047 2.676-2.75 5.313l-1.672 2.675L603 426h-2v2h-2l-.875 1.875C597 432 597 432 595 434c-6.091.786-9.353.028-14.687-3-7.31-3.94-14.784-4.64-22.801-2.262-4.292 1.964-7.357 4.746-10.512 8.262l-1.504 1.395c-8.735 9.373-6.763 24.77-6.41 36.445.331 5.12 1.4 8.919 3.976 13.37 1 1.91 1.494 3.688 1.938 5.79h2v2l2.063.813a99 99 0 0 1 6.093 2.718c4.071 1.75 7.896 2.015 12.282 2.156L575 502v-20h-9c-3.22-.959-4.631-1.631-7-4-.227-1.971-.227-1.971-.195-4.352l.02-2.578.05-2.695.027-2.719q.036-3.328.098-6.656c2.897-1.654 4.89-2.238 8.218-2.135l2.486.06 2.655.098 2.74.076c2.885.082 5.768.179 8.651.276l5.871.172q7.19.212 14.379.453v1h-41v20h16v24c-12.134 2.696-21.014 3.588-32-3-8.36-7.174-12.873-16.131-14-27-.967-13.63-.084-26.543 8.227-37.996 5.322-6.014 11.588-10.843 19.777-11.375q2.28-.06 4.558-.067l2.411-.009c6.168.124 11.005 1.449 16.547 4.256 2.636 1.266 4.545 2.097 7.48 2.191 2.254-1.707 2.254-1.707 4.125-4.187l2.008-2.418L600 421l1.734-2.148c1.476-1.815 1.476-1.815 1.391-4.29-2.632-5.995-8.967-8.037-14.687-10.312-15.01-5.694-33.84-4.906-48.649 1.04-15.643 7.368-25.757 18.473-31.789 34.71-6.381 18.878-4.712 40.21 3.422 58.133 6.12 12.076 15.515 21.02 28.328 25.867l3.25 1-1 2c-7.984-1.198-14.428-4.285-21-9v-2h-2v-2h-2v-2h-2l-2-5h-2v-3h-2c-1.765-3.088-2-4.233-2-8h-2c-3.393-9.745-4.617-18.435-4.467-28.716.03-2.179.02-4.355.008-6.534.011-7.145.33-13.196 3.459-19.75.574-1.663 1.14-3.329 1.688-5 .25-.763.502-1.526.761-2.312L507 432h2v-4h2v-3h2v-3h2c.264-.583.529-1.165.8-1.766 5.5-10.247 17.406-15.945 27.99-19.625 18.666-5.398 41.76-4.964 58.21 6.391"/><path fill="#FDFBEF" d="M366 429c4.75.875 4.75.875 7 2 1.54.07 3.083.085 4.625.063l2.477-.028L382 431v2l3.438.875L389 435l1 2c2.017.833 4.065 1.592 6.125 2.313 6.41 2.396 11.213 4.682 15.813 9.875 1.892 5.01 2.16 10.069.148 15.097-2.57 4.437-5.313 7.632-10.086 9.715-9.21 1.457-16.676-1.24-25-5l-.55 1.941c-1.513 5.203-3.2 10.13-5.45 15.059q-2.438-.464-4.875-.937l-2.742-.528C361 484 361 484 359 483c.632-4.725 1.918-8.906 3.563-13.375l.708-1.941q.86-2.344 1.729-4.684l-2.812-.875C359 461 359 461 356 459c.523-2.763 1.109-5.326 2-8 4.318.508 8.033 1.197 12 3l.313-2.062c.834-3.567 2.182-6.6 3.687-9.938l-1.934-.516-2.503-.734-2.497-.703C365 439 365 439 364.156 437.094c-.224-3.002.772-5.319 1.844-8.094m12 9 .629 2.605c.43 3.93-.21 6.068-1.692 9.707l-1.222 3.176C374 456 374 456 371.059 456.883c-3.471.133-6.645-.269-10.059-.883 1.135 3.291 1.993 3.996 5.125 5.75L369 463c-.518 5.01-1.404 9.212-3 14-.169 2.75-.169 2.75 0 5h3l.883-2.703c3.765-10.75 3.765-10.75 7.43-13.11L380 465l-.687-2.875C378.202 454.269 382.39 446.72 386 440c-3.228-2.152-4.284-2.2-8-2m14 5c1.27 3.807 2.572 4.187 6 6.125 4.954 2.829 4.954 2.829 6 3.875.557 5.685-.414 8.57-4 13-2.453 1.226-3.617.96-6.312.625l-2.422-.3A92 92 0 0 1 384 465c3.441 4.34 7.668 6.026 13 7 4.536-.77 7.144-2.404 10-6 1.928-4.499 1.479-10.085.313-14.75-2.584-4.43-6.491-6.766-11.313-8.25z"/><path fill="#6D6E6E" d="M1164 477c3.445 1.348 4.683 2.551 6.813 5.563 2.515 7.28 1.824 12.788-1.438 19.75-3.557 6.52-7.187 10.326-14.375 12.687-3.113.195-3.113.195-6.312.125l-3.239-.055L1143 515l-.184 3.246-.254 4.192-.119 2.142c-.33 5.307-.33 5.307-1.443 6.42-3 .142-5.998.042-9 0-.291-9.04.588-17.633 1.938-26.562q.548-3.72 1.09-7.442l.518-3.567c.548-4.136.914-8.271 1.21-12.433C1137 479 1137 479 1138 478c2.67-.141 5.324-.042 8 0l1 4 1.434-1.094c5.2-3.65 9.23-4.996 15.566-3.906m-11 12.438c-3.563 4.565-4 9.892-4 15.562 2.958-.32 4.547-.518 6.621-2.727 1.577-2.6 1.895-4.383 2.129-7.398l.234-2.633c.186-2.28.186-2.28-.984-4.242-2.14-.195-2.14-.195-4 1.438"/><path fill="#F4FBF5" d="M421.672 327.703 423 329v2h2l2 5h2c2 3 2 3 2 6h2c1.765 3.088 2 4.233 2 8h2l3 12c3.635.909 5.271.839 8.809.273 12.92-1.612 12.92-1.612 17.816 1.54 4.264 3.927 4.662 6.552 4.938 12.187.239 5.09.239 5.09 1.437 10 .202 2.31.364 4.623.5 6.938.215 4.575.215 4.575 1.008 9.066.734 2.979.735 5.934.867 8.996.321 6.314 1.099 12.452 2.125 18.688a216 216 0 0 1 2.375 21.75l.186 2.672c.23 4.839.192 8.01-3.061 11.89-6.633 5.988-15.181 9.979-22.98 14.242-5.417 2.963-10.784 6.009-16.145 9.07l-2.618 1.49q-2.472 1.412-4.93 2.845-2.287 1.33-4.606 2.604c-4.645 2.658-6.852 4.782-8.971 9.874-2.895 6.828-2.895 6.828-6.75 8.875l-3-1 1.91-1.133c2.739-2.447 2.892-4.156 3.527-7.742C414.4 495.631 416.874 485.929 424 479h1c-.509 5.978-2.42 10.619-5 16l1.982-1.296a282 282 0 0 1 17.964-10.686c4.336-2.373 8.629-4.819 12.925-7.263 2.896-1.624 5.82-3.18 8.754-4.732q2.472-1.41 4.938-2.836l2.306-1.137c2.45-1.486 3.668-2.573 5.131-5.05.988-5.704.502-11.272 0-17l-.264-3.053c-.75-8.267-1.672-16.512-2.611-24.76q-.611-5.494-1.218-10.99-.396-3.564-.805-7.127c-.613-5.379-1.177-10.746-1.568-16.146l-.219-2.803a212 212 0 0 1-.324-5.093c-.301-3.873-.668-5.693-3.407-8.532-2.829-1.638-4.29-1.957-7.522-1.808l-2.644.105c-2.84.243-5.61.719-8.418 1.207-2.668.064-5.33.022-8 0l-.996-3.445c-4.713-15.58-11.304-29.71-25.922-38.262-2.998-1.562-5.96-2.996-9.082-4.293l-1.902-.827c-6.837-2.668-13.403-2.517-20.66-2.36l-3.635.04q-4.402.054-8.803.147l1-2c19.424-4.69 39.028.875 54.672 12.703"/><path fill="#6C6C6D" d="M1180 462h9v19l7-4c4.67-.92 8.718-.513 13.125 1.25 3.181 4.665 2.295 9.275 1.875 14.75l-.186 2.596a757 757 0 0 1-.689 8.591l-.237 2.865-.255 2.678-.222 2.42L1209 514c-3.013 1.507-5.683 1.178-9 1-2-2-2-2-2.25-4.812.12-4.724 1.01-9.358 1.813-14.004.426-3.107.512-6.052.437-9.184l-3.687-.312-2.075-.176c-3.746.817-4.977 2.413-7.238 5.488-1.021 3.731-1.426 7.47-1.812 11.313l-.366 3.11A622 622 0 0 0 1184 514h-10c.452-10.765 1.364-21.467 2.438-32.187l.37-3.833.376-3.648.33-3.259c.505-3.19 1.382-6.042 2.486-9.073"/><path fill="#FEFBF8" d="m954 439 7 3v2h2c4 5.412 4 5.412 4 8h2l-.176-2.082c-.135-2.706-.157-5.228.176-7.918 2.302-2.446 3.8-2.91 7.113-3.16 1.963-.025 3.927.06 5.887.16v2l-9 1a1890 1890 0 0 0-.062 7.938l-.026 2.287c-.009 1.925.036 3.85.088 5.775 2.635 2.635 7.292 1.63 11 2v50c-3-3-3-3-3.36-5.031l.02-2.349v-2.668l.047-2.87.013-2.947c.017-3.107.054-6.215.092-9.322q.024-3.16.042-6.319.051-7.748.146-15.494c-1.918.03-1.918.03-3.875.063-3.875.062-3.875.062-6.125-1.063l.027 2.41q.12 11.233.18 22.468.03 5.776.095 11.552.063 5.572.078 11.146.01 2.127.043 4.254c.029 1.985.03 3.97.031 5.954l.027 3.426C971 526 971 526 969.145 527.865c-2.819 1.492-4.9 1.507-8.082 1.498l-3.461-.002-3.602-.048-3.602.01c-10.128-.064-10.128-.064-13.398-2.323-1.237-3.712-1.085-7.112-1.027-10.973l.037-4.92q.035-3.84.086-7.679c1.068-19.186 1.068-19.186-3.096-37.428 2.438.375 2.438.375 5 1 1.288 2.577 1.16 4.482 1.205 7.368l.06 3.397.051 3.68.063 3.758q.082 4.947.153 9.894.077 5.048.161 10.094c.108 6.603.207 13.206.307 19.809h26c.042-7.479.082-14.957.104-22.436q.014-5.225.047-10.451c.026-4.012.036-8.023.044-12.035l.032-3.723c.001-13.402-.956-23.892-10.602-33.793L954 441z"/><path fill="#F1FAF4" d="M366 317c-2.783 1.855-5.395 3.076-8.437 4.438-13.176 6.571-22.86 17.525-27.938 31.375-2.52 8.848-2.36 18.119-2.483 27.26C327 382 327 382 326 383c-2.46.336-4.907.618-7.375.875q-2.34.27-4.68.547a692 692 0 0 1-7.337.834C294.277 386.61 283.723 389.599 273 396c-2.412 3.618-2.328 5.494-2.487 9.81l-.084 2.091c-.091 2.297-.168 4.594-.245 6.892l-.186 4.869c-.165 4.303-.317 8.606-.468 12.91-.15 4.249-.313 8.498-.473 12.746-.772 20.558-1.438 41.119-2.057 61.682l-.248 8.092c-.33 6.171-.33 6.171 2.049 11.697 9.239 9.288 24.246 8.518 36.449 8.836l3.738.117q4.506.14 9.012.258v2q-6.664.149-13.33.22-2.257.03-4.515.082c-11.025.25-23.817.375-32.905-6.865-3.295-3.57-4.503-5.536-4.48-10.332l.005-2.896.038-3.021.001-2.987c.045-7.412.045-7.412.679-10.964.645-4.12.72-8.162.788-12.327l.056-2.614q.086-4.117.163-8.233.103-5.42.219-10.84l.04-2.485c.074-3.43.234-6.69.748-10.088.689-5.096.649-10.142.669-15.279l.072-6.822c.035-3.564.065-7.127.078-10.691.015-3.455.056-6.908.1-10.362l-.006-3.22c.1-6.052.473-9.707 4.58-14.276 1.7-1.368 1.7-1.368 3.398-2.23l1.929-.99 2.048-.967 2.162-1.038c13.404-6.18 27.944-6.677 42.463-7.775l-.07-2.168C322.686 365.357 324.905 354 331 342h2l.313-1.75c.796-2.607 1.878-4.224 3.687-6.25h2l2-4h2v-2h2v-2l4-1v-2q2.836-1.517 5.688-3l3.199-1.687c3.035-1.28 4.873-1.602 8.113-1.313"/><path fill="#F3FAF2" d="M399.813 333.344c10.325 5.365 16.731 14.14 21.187 24.656.795 3.717 1.124 7.205 1 11-10.822 2.305-21.641 3.726-32.635 4.945-7.493.831-14.929 1.808-22.365 3.055q-3.654.61-7.31 1.207-2.493.406-4.983.828c-4.638.756-9.007 1.103-13.707.965-3.009-6.018-1.153-14.445.563-20.625 3.644-10.665 10.868-20.585 21.128-25.723A101 101 0 0 1 370 331c9.505-3.168 20.778-1.352 29.813 2.344M357 342v2h-2c-8.425 9.748-10.72 20.435-10 33 6.43.224 12.354-.105 18.656-1.371 4.224-.795 8.463-1.404 12.719-2.004l2.635-.374q7.36-1.034 14.725-2.027l5.992-.812q3.924-.532 7.85-1.054l3.622-.49 3.245-.435c2.537-.302 2.537-.302 4.556-1.433-1.179-7.31-3.367-14.17-8-20h-2l-.707-2.27c-1.536-3.243-3.034-4.41-5.98-6.418-.83-.58-1.658-1.162-2.512-1.761-13.79-7.635-31.126-4.46-42.801 5.449"/><path fill="#167E35" d="M425 380h1l.148 1.828.227 2.422c.07.789.14 1.578.21 2.39.452 2.572.867 4.245 2.415 6.36 2.417.702 2.417.702 5.125.75l2.758.172L439 394l-2 4c-5.504.324-9.437.533-14-3 2.046 7.935 5.195 15.041 8.813 22.375l1.54 3.172c3.104 6.376 3.104 6.376 6.371 12.669l1.663 3.136 1.518 2.783c2.355 6.162.927 11.327-1.425 17.232l-.785 2.058a879 879 0 0 1-2.507 6.45q-1.239 3.206-2.47 6.414-.794 2.063-1.595 4.121a155 155 0 0 0-3.787 10.906c-1.796 4.954-3.808 6.132-8.336 8.684h-2c2.476-7.734 5.389-15.262 8.375-22.812l1.422-3.62 1.414-3.588 1.39-3.533a207 207 0 0 1 2.9-6.796l1.413-3.163 1.288-2.776c2.04-6.934-2.044-12.922-5.112-18.966l-2.998-6.025q-2.37-4.726-4.748-9.447c-1.53-3.047-3.049-6.1-4.567-9.153l-1.448-2.847-1.325-2.67-1.176-2.335c-.933-2.556-.98-4.569-.828-7.269l5 1 .367-1.898.508-2.477.492-2.46C423 382 423 382 425 380"/><path fill="#F3FBF6" d="M292 414h1l.252 2.871 2.382 27.046q.615 6.949 1.224 13.897.591 6.73 1.187 13.461.225 2.542.447 5.086c.852 9.725 1.76 19.438 2.874 29.138.757 6.85.836 13.61.634 20.501l-10 3zm4 78c-1.461 2.922-1.111 5.499-1.098 8.758l.005 2.01c.005 2.118.018 4.238.03 6.357q.008 2.154.014 4.309.017 5.283.049 10.566h4q.039-3.406.063-6.812l.035-3.833c.064-3.351.064-3.351-1.098-6.355a245 245 0 0 1-.562-7.687l-.131-2.127q-.158-2.593-.307-5.186z"/><path fill="#FCEDDE" d="m711.215 400.855 3.228-.02 3.495-.003 3.607-.01q3.787-.007 7.576-.007c3.836-.002 7.672-.02 11.508-.04q3.686-.005 7.371-.005l3.445-.022c13.099.037 24.975 2.114 35.555 10.252v2h2c6.465 8.485 6.712 16.65 6 27-1.164 5.837-4.3 10.447-8 15h-2v2c-3.462 3-3.462 3-6 3v2l2.313.812c2.56 1.132 3.884 2.1 5.687 4.188l-2 2-1.977-1.023c-4.6-2.348-9.04-4.535-14.023-5.977 1.369-2.737 2.908-2.97 5.688-4.188 7.655-3.729 11.523-8.885 14.312-16.812 2.063-6.938 1.82-15.38-1-22-7.337-11.123-17.203-13.047-30-16h-54v122h-1V402c3.02-1.007 5.057-1.132 8.215-1.145"/><path fill="#EDF7F1" d="M657 459c4.139 1.787 6.531 4.254 9 8 1.833 5.258 2.323 9.882 2.25 15.375l-.025 2.269c-.172 8.517-.806 14.542-6.69 21.043-3.425 2.928-7.26 2.538-11.535 2.313-3.417-.976-5.206-2.973-7.05-5.992-4.523-9.566-6.15-22.365-2.763-32.508 4.029-7.778 7.666-11.47 16.813-10.5m-10 7c-5.047 7.066-3.401 19.788-2.625 27.938A36.3 36.3 0 0 0 647 502h2v2c2.76 1.804 3.89 2.013 7.25 1.625L659 505v-2h2c3.867-5.8 4.34-11.109 4.313-17.875l.048-2.316c.006-6.749-1.595-11.946-5.173-17.747-4.877-4.597-8.763-3.61-13.188.938"/><path fill="#2B8333" d="M398 387h8c-2.36 1.573-4.298 2.64-6.87 3.724l-2.338.992-2.519 1.057-2.612 1.107q-4.142 1.75-8.286 3.495l-8.221 3.474q-2.556 1.08-5.113 2.157a627 627 0 0 0-4.716 2.013q-2.389 1.007-4.815 1.917c-4.923 1.928-4.923 1.928-8.402 5.797l-1.069 3.091-1.238 3.365-1.176 3.498q-1.215 3.45-2.46 6.887l-1.05 3.081L344 435l-3 1-1 3h-2c.578-6.843 2.919-12.913 5.313-19.312.39-1.097.782-2.193 1.185-3.323l1.178-3.166 1.06-2.88c1.44-2.64 2.481-3.306 5.264-4.319v-2l3.613-1.242 4.7-1.633 2.38-.816 2.295-.801 2.11-.73c2.173-.816 2.173-.816 4.902-2.778 1.985-.71 3.99-1.367 6-2q2.438-.81 4.875-1.625L387 391v-2q2.183-.794 4.375-1.562l2.46-.88C396 386 396 386 398 387"/><path fill="#F7FCFA" d="M267 436h1c.097 18.8.159 37.585-.5 56.375l-.133 3.968c-.314 9.267-.314 9.267-.479 13.59a501 501 0 0 0-.2 7.255l-.114 3.73c.527 3.815 1.735 5.376 4.426 8.082 9.333 7.021 23.175 6.336 34.25 6.625l3.738.117q4.506.14 9.012.258v2q-6.664.149-13.33.22-2.257.03-4.515.082c-11.025.25-23.817.375-32.905-6.865-3.295-3.57-4.503-5.536-4.48-10.332l.005-2.896.038-3.021.001-2.987c.045-7.406.045-7.406.681-10.997.621-3.941.698-7.783.751-11.767l.096-5.076c.015-.877.03-1.754.047-2.658.276-15.317.812-30.477 2.611-45.703"/><path fill="#FCE9D8" d="M732 472c23.218-.654 23.218-.654 31.563 6.063 3.445 4.644 2.998 10.417 2.437 15.937-2.335 5.03-4.874 7.028-10 9-8.343 2.935-14.36 2-24 2zm4 3q-.042 6.468-.062 12.938l-.026 3.732-.01 3.545-.016 3.285c-.17 2.44-.17 2.44 1.114 3.5 12.309 1.087 12.309 1.087 23-4 3.212-3.626 3.53-7.1 3.344-11.785-.559-3.6-1.886-5.568-4.344-8.215-5.337-2.822-9.463-3.4-15.437-3.187l-2.217.04c-1.783.035-3.564.09-5.346.147"/><path fill="#ECF8F0" d="m566.196 456.865 2.547.06 2.737.098 2.813.076c2.965.082 5.93.18 8.895.276q3.014.087 6.029.172 7.392.212 14.783.453v1h-41v20h16v24c-12.448 2.766-20.608 3.241-32-3-1.844-1.668-1.844-1.668-3-3l1-3h2v2l2.063.813a99 99 0 0 1 6.093 2.718c4.071 1.75 7.896 2.015 12.282 2.157L575 502v-20h-9c-3.22-.959-4.631-1.631-7-4-.446-3.147-.324-6.325-.312-9.5l-.05-2.668-.001-2.55-.01-2.343L559 459c3.123-2.082 3.68-2.24 7.196-2.135"/><path fill="#FCEAD7" d="M732 423c20.81-.776 20.81-.776 28 5 3.45 3.731 3.514 6.615 3.348 11.531-.727 5.163-3.387 7.744-7.41 10.781-3.572 2.052-6.119 2.814-10.168 2.786l-2.193-.008-2.764-.027L732 453zm4 4a72 72 0 0 0-.133 4.586l-.004 2.82.012 2.969-.012 2.945.004 2.828.004 2.6c.04 2.421.04 2.421 1.129 5.252 10.023.504 10.023.504 18.938-3.5 1.255-1.466 1.255-1.466 1.062-3.5h2c.861-7.186.861-7.186-1.125-13.875-3.906-3.418-17.5-7.5-21.875-3.125"/><path fill="#FDFBF3" d="M399 449c4.875 2.875 4.875 2.875 6 4 .558 5.693-.398 8.575-4 13-3.325 2.216-3.779 2.183-7.5 1.625-2.573-.369-4.89-.625-7.5-.625l13 5-1 2c-7.818.766-13.88-1.96-21-5l-3 10-3-1q.387-2.16.813-4.312l.457-2.426c.824-2.552 1.637-3.615 3.73-5.262l3-1-1-7 2-1v3l9 1v2c4.063.322 4.063.322 7.813-1 2.312-3.894 2.187-8.563 2.187-13"/><path fill="#FEFDF3" d="M257 510c-.535 2.318-1.144 4.32-2.125 6.5-1.308 5.233-.51 10.19.125 15.5-2.248-2.052-3.002-3.007-4-6a132 132 0 0 1-.062-6.062l.027-3.223L251 514v-2c-10.81 16.105-10.81 16.105-12 35 2.256 7.42 6.591 12.716 13 17a78 78 0 0 0 9 4l-2 2c-4.695-.27-7.603-1.713-11.375-4.437l-2.648-1.872L243 562v-2h-2c-2-3-2-3-2-6h-2c-3.745-10.768-1.715-19.419 2-30h2v-4h2l.352-1.77c.69-2.371 1.59-3.916 3.023-5.918l1.273-1.824c3.137-3.454 5.62-2.203 9.352-.488"/><path fill="#147B3A" d="m438 448 4 1c.224 4.533-.402 7.754-2.082 11.957l-1.326 3.373-1.404 3.483q-1.357 3.414-2.708 6.832l-1.309 3.283c-1.288 3.38-2.376 6.785-3.35 10.268-1.609 3.533-4.522 4.945-7.821 6.804h-2c2.487-7.78 5.43-15.346 8.438-22.937l1.447-3.67Q433.913 458.184 438 448"/><path fill="#FEFDFB" d="M1013 461h15l1 2h-12v39h2v2h9l2-5h2c.043 2 .04 4 0 6-1.986 1.986-5.67 1.275-8.375 1.313l-2.078.087c-5 .064-5 .064-7.25-1.842-1.98-3.907-1.666-7.6-1.59-11.917l.013-2.74c.017-2.885.054-5.768.092-8.651q.024-2.936.042-5.871.051-7.19.146-14.379"/><path fill="#FBE6D7" d="M845 457c3.335 1.728 5.45 4.074 7.375 7.313C853 467 853 467 853 475h-28c1.02-8.158 1.743-11.122 7.688-16.375 4.268-2.094 7.644-2.594 12.312-1.625m-13.312 8.875c-.871 2.69-.311 4.407.312 7.125q3.969.04 7.938.063l2.287.025c1.925.009 3.85-.036 5.775-.088 1.3-1.092 1.3-1.092 1.313-3.75-.395-4.106-1.17-5.578-4.313-8.25-5.793-1.258-9.877-.032-13.312 4.875"/><path fill="#F8C814" d="M386 447c5.106 1.58 10.16 3.16 14 7-.153 3.509-.68 5.539-2.687 8.438C395 464 395 464 391.75 463.75L389 463v-2l-8-1c.607-4.86 2.728-8.74 5-13"/><path fill="#FDFEFC" d="M701 487h2l1 38c7.21.841 7.21.841 14.336 1.114h2.85l2.974-.016 3.123-.005c3.26-.005 6.52-.018 9.78-.03q3.334-.009 6.67-.014 8.133-.017 16.267-.049c-3.215 3.215-6.489 3.126-10.889 3.161l-2.932.03-3.148.012-3.25.017q-3.399.014-6.798.02c-3.47.01-6.94.041-10.409.072q-3.302.01-6.605.016l-3.148.038-2.932-.01-2.575.011c-2.892-.459-4.25-1.303-6.314-3.367a60.6 60.6 0 0 1-.39-8.824c.005-.862.01-1.723.017-2.61.022-2.752.072-5.502.123-8.254q.03-2.798.055-5.595c.044-4.573.113-9.145.195-13.717"/><path fill="#FCE7DA" d="M1081 491c1.061 9.468 1.061 9.468-1.383 12.996-1.794 1.557-3.567 2.807-5.617 4.004l-2.437 1.438c-3.9.855-6.643.447-10.563-.438-2.34-2.048-2.843-3.402-3.625-6.375.853-3.583 2.507-5.014 5.355-7.266 5.545-3.32 11.862-4.567 18.27-4.359m-12.125 5.313-2.07.738c-2.148.946-2.148.946-3.805 3.949-.167 2.625-.167 2.625 0 5 2.78 1.39 4.919 1.185 8 1 3.343-1.207 3.947-1.92 6-5 .08-2.332.088-4.668 0-7-3.418 0-5.063.177-8.125 1.313"/><path fill="#F9E0D0" d="M1032 443h1v7h2l1.563 3.375c2.971 5.965 6.71 11.899 11.437 16.625-1.687.813-1.687.813-4 1-3.603-2.917-5.612-5.583-7-10l-3.562.563c-6.794.546-13.638-.11-20.438-.563v39h-1v-41l18-1c1.94-1.94 1.4-5.473 1.563-8.062l.253-3.91z"/><path fill="#F7F7F7" d="M1155.125 484.5c2.875.5 2.875.5 4.75 1.5 1.818 3.232 1.61 6.436 1.125 10-1.765 5.296-3.868 9.434-9 12-2.333.04-4.667.043-7 0-.48-14.762-.48-14.762 4.25-20.937C1152 485 1152 485 1155.125 484.5m-2.125 4.938c-3.563 4.565-4 9.892-4 15.562 2.958-.32 4.547-.518 6.621-2.727 1.577-2.6 1.895-4.383 2.129-7.398l.234-2.633c.186-2.28.186-2.28-.984-4.242-2.14-.195-2.14-.195-4 1.438"/><path fill="#FDFCFB" d="M352 606h3c1.387 1.426 1.387 1.426 2.688 3.313l1.324 1.863C360 613 360 613 360 616l-1.787.044A615 615 0 0 0 318 618.438c-.683.06-1.365.122-2.069.186-9.129.82-9.129.82-18.118 2.536-3.526.777-4.586.852-7.813-.16 6.137-6.137 21.456-4.817 29.833-5.433 2.596-.191 5.191-.394 7.786-.598 8.807-.675 17.54-1.19 26.381-.969l-3-7z"/><path fill="#248729" d="M405 404c2.375 1.063 2.375 1.063 4 3 .57 3.918.595 6.072-1.562 9.438-3.366 2.157-5.52 2.132-9.438 1.562-2.625-2.202-2.945-3.62-3.437-7 .437-3 .437-3 2.062-5.375 3.07-2.1 4.72-2.158 8.375-1.625"/><path fill="#248429" d="M425 380h1l.148 1.828.227 2.422c.07.789.14 1.578.21 2.39.452 2.572.867 4.245 2.415 6.36 2.417.702 2.417.702 5.125.75l2.758.172L439 394l-2 4c-5.504.324-9.437.533-14-3v3h-2v5c-3.445-4.384-5.316-7.308-5-13l5 1 .367-1.898.508-2.477.492-2.46C423 382 423 382 425 380"/><path fill="#FEFAE5" d="M259 569c4.3.478 8.46 1.08 12.681 2.027 5.07 1.026 9.886 1.233 15.046 1.168l2.647-.008c2.75-.011 5.5-.036 8.251-.062q2.822-.016 5.645-.027 6.864-.035 13.73-.098c-16.593 8.334-36.46 5.043-54 1-2.354-1.07-2.354-1.07-4-2z"/><path fill="#FEEBDF" d="M984 460h1l.011 1.748c.042 6.052.112 12.104.197 18.156q.042 3.378.063 6.758c.022 3.255.068 6.51.12 9.764l.003 3.01c.153 7.429 1.349 15.15 5.876 21.285 6.821 6.456 17.994 5.766 26.73 6.279v1c-20.723 2.149-20.723 2.149-29-4v-2h-2c-2-3-2-3-2-6h-2z"/><path fill="#FEF9F2" d="M1069 478v1l-3.805.883c-17.459 4.144-17.459 4.144-29.917 16.407-2.375 5.038-2.431 10.28-2.653 15.772l-.207 3.49A498 498 0 0 0 1032 524h-1v-17h-14v-1l14-1-.125-4.812c-.1-3.843-.084-4.874 2.125-8.188h2v-2h2v-2c8.781-6.667 20.922-12.319 32-10"/><path fill="#EEF7EF" d="M334.438 391.438c4.155.656 5.843 1.35 8.562 4.562.52 3.638.427 5.985-1 9.375-2.6 2.112-4.681 2.595-7.992 2.852C332 408 332 408 329 405.937c-2.347-3.446-2.765-4.858-2-8.937 2.09-3.844 3.076-4.849 7.438-5.562M334 395c-2.316 1.885-2.316 1.885-2.25 5-.066 3.115-.066 3.115 2.25 5 2.603-.32 2.603-.32 5-1 .167-3.417.167-3.417 0-7l-2-2z"/><path fill="#F1F8F2" d="M439 378c2.563 2.063 2.563 2.063 4 5 .075 4.285-.309 6.23-3.187 9.438-3.335 1.852-5.057 2.201-8.813 1.562-2.375-1.5-2.375-1.5-4-4-.806-4.013-.616-6.973 1.5-10.5 3.524-2.115 6.496-2.434 10.5-1.5m-6 3c-2.367 2.848-2.367 2.848-1.625 6.188L432 390c3.583 1.002 3.583 1.002 7 0 .167-3.417.167-3.417 0-7l-2-2z"/><path fill="#E9FAF2" d="M292 414h1q.65 6.747 1.282 13.495.215 2.287.436 4.576c1.969 20.4 1.969 20.4 1.282 25.929l-2 2c-.372 2.814-.372 2.814-.414 6.102l-.117 3.671-.094 3.852-.117 3.875q-.142 4.75-.258 9.5h-1z"/><path fill="#F0FAEF" d="M366 317c-2.783 1.855-5.395 3.076-8.437 4.438-13.176 6.571-22.86 17.525-27.938 31.375-2.682 9.442-2.473 19.435-2.625 29.187h-1a848 848 0 0 1-.75-12.375l-.246-3.504c-.391-7.694.471-13.264 3.996-20.121l1.134-2.275L331 342h2l.313-1.75c.796-2.607 1.878-4.224 3.687-6.25h2l2-4h2v-2h2v-2l4-1v-2q2.836-1.517 5.688-3l3.199-1.687c3.035-1.28 4.873-1.602 8.113-1.313"/><path fill="#F1F7E3" d="M437 448c-.32 6.51-1.747 11.162-4.59 17.004-2.45 5.205-4.398 10.61-6.41 15.996h-3l-2 1c1.893-7.205 4.577-13.9 7.582-20.71a113 113 0 0 0 3.106-8.04c2.12-5.25 2.12-5.25 5.312-5.25"/><path fill="#EB653A" d="M485 473c1 2 1 2 .441 3.945l-.878 2.18-.872 2.195L483 483l-1-4c-2.911.97-5.323 2.175-8.023 3.625C460.56 489.757 447.087 496.297 433 502l.465 2.324L435 512l-2-1v-2c-1.564-1.285-1.564-1.285-3.5-2.5-1.969-1.281-1.969-1.281-3.5-2.5v-2l2.896-1.202c29.44-11.363 29.44-11.363 56.104-27.798"/><path fill="#EFFAF1" d="M673 439c1.219 2.078 1.219 2.078 2 4l-2.246-.656c-13.038-3.447-28.058-4.918-40.18 2.05-4.05 2.62-7.877 5.506-11.574 8.606l-1-3 3-1v-2c13.04-10.771 34.026-13.705 50-8"/><path fill="#FCFDFD" d="M733 473h9l-1 2h-5l1 26 10 1v2h-14z"/><path fill="#0E7A30" d="m335 446 2 1-.805 2.309c-2.399 6.972-2.399 6.972-4.132 14.128-1.229 6.107-3.733 11.809-6.063 17.563-.826-2.892-1-4.887-1-8l-2 1c1.754-5.517 3.862-10.874 6-16.25l1.078-2.758 1.047-2.633.945-2.391C333 448 333 448 335 446"/><path fill="#FEF5EB" d="M1093 439c1.262 2.078 1.262 2.078 2 4l-1.484-.656c-6.195-2.307-12.042-2.647-18.579-2.656l-2.54-.016c-8.057.088-15.228 1.581-22.647 4.765l-2.953 1.247c-2.722 1.28-5.248 2.72-7.797 4.316.191-1.84.191-1.84 1-4 13.488-8.641 37.966-13.71 53-7"/><path fill="#E6F4EF" d="m354 529-3 1-1.4 1.505c-2.052 1.918-3.433 2.055-6.198 2.41-1.325.18-1.325.18-2.677.366l-2.788.344q-2.736.359-5.472.727l-2.45.307c-2.078.25-2.078.25-4.015 1.341-2.724-.09-5.41-.234-8.125-.437l-2.285-.159q-2.796-.196-5.59-.404v-1c.785-.105 1.57-.21 2.38-.32 3.624-.49 7.247-.991 10.87-1.492l3.742-.502c7-.977 13.718-2.24 20.51-4.204 2.584-.499 4.04-.339 6.498.518"/><path fill="#E7F6ED" d="M297 493h3c1.32 11.058 2.327 21.847 2 33h-5l1-2c.097-2.31.13-4.625.125-6.937l.008-3.778c.019-3.292.019-3.292-1.133-6.285-.07-2.395-.084-4.792-.062-7.187l.027-3.856z"/><path fill="#FCFDFC" d="M831.877 490.886q2.595 0 5.19.016l2.753.005c2.914.005 5.828.018 8.742.03l5.913.014q7.262.017 14.525.049l-1 2h-37l-1 8c-2.056-2.313-2.959-3.56-3.25-6.688.423-3.91.939-3.303 5.127-3.426"/><path fill="#0F7725" d="M346 413h4l-.586 1.871c-1.54 5.01-2.89 9.974-3.887 15.121-.575 2.191-1.452 4.02-2.527 6.008h-2l-1 3h-2c.584-6.059 2.387-11.274 4.563-16.937l.998-2.65q1.21-3.21 2.439-6.413"/><path fill="#FEF6EE" d="M836 438c23.005-.911 23.005-.911 32.688 6.625C871 447 871 447 871 449h2l2 5-3 2-.96-1.54c-5.017-7.399-11.962-12.356-20.813-14.16-4.725-.638-9.47-.999-14.227-1.3z"/><path fill="#F9FDF8" d="M325 360h1v23c-18.508 2.369-18.508 2.369-28 2 3.167-2.111 4.423-2.335 8.105-2.633l2.979-.254 3.103-.238 3.14-.262q3.835-.318 7.673-.613l-.07-2.309c-.116-6.598.37-12.314 2.07-18.691"/><path fill="#FEFCF0" d="m276 546 2.535.219c15.887 1.266 31.576.644 47.465-.219-9.666 6.444-29.097 5.31-40.254 3.324-3.276-.697-6.513-1.45-9.746-2.324z"/><path fill="#318E37" d="M411.813 384.75c3.29 1.29 4.944 2.558 7.187 5.25h-3l-1 4-1.5-1.375c-3.337-2.169-6.65-2.798-10.5-3.625l-2.062-.555c-2.094-.557-2.094-.557-4.938-.445l1-3c4.454-2.227 10.096-1.178 14.813-.25"/><path fill="#757575" d="M1126 506c1 1 1 1 1.25 3.375-.25 2.625-.25 2.625-1.375 4.438-2.71 1.715-4.738 1.52-7.875 1.187-2-2-2-2-2.312-4.437.312-2.563.312-2.563 1.374-4.438 3.08-1.788 5.581-.87 8.938-.125"/><path fill="#FCF2EB" d="m1069.125 459.813 3.195-.043c2.68.23 2.68.23 4.68 2.23h-13v2l-1.574.77c-3.174 1.566-6.216 3.092-9.176 5.043-2.25 1.187-2.25 1.187-4.5 1C1047 470 1047 470 1046 468q3.12-1.726 6.25-3.437l1.777-.987c5.34-2.91 9.05-3.726 15.098-3.764"/><path fill="#2E8134" d="M326 393h1l.078 2.047c.269 5.586.269 5.586 2.735 10.453 2.013 1.38 3.944 2.539 6.187 3.5-3.125 1.313-3.125 1.313-7 2-4.304-2.47-5.584-3.728-7.125-8.437.152-4.342 1.384-6.258 4.125-9.563"/><path fill="#E09E1B" d="M377 469c3.158.493 5.608 1.267 8.563 2.563 6.339 2.475 13.938 2.356 20.437.437v2l-6 1v2c-8.857.606-15.132-1.066-23-5z"/><path fill="#FCFDFB" d="M734 429h1c1.848 7.459 2.179 14.32 2 22l15-1-1 2h-18l-.062-8.125-.028-2.524c-.016-4.232.244-8.183 1.09-12.351"/><path fill="#FDF5EE" d="M1073 495c-2.565 2.565-4.477 2.54-8 3l-2 8 3 1v1c-2.875.188-2.875.188-6 0-2.18-3.27-2.632-4.205-2-8 2.485-3.216 4.132-4.752 8.063-5.875 2.624-.112 4.475.023 6.937.875"/><path fill="#FDF1E4" d="M760 429c2.078 1.692 2.923 2.597 3.434 5.27.008 5.753-.413 9.286-4.434 13.73-1.942 1.516-3.87 2.741-6 4l-2-1a418 418 0 0 1 2.875-3.5l1.617-1.969L757 444h2l-.035-2.52-.028-3.293-.035-3.269C759 432 759 432 760 429"/><path fill="#FDF6E3" d="M412 503c.978 2.64 1.036 3.873.25 6.625C411 512 411 512 408 514v2a701 701 0 0 1-6.312 3.063l-3.551 1.722C395 522 395 522 392 521v-3c.797-.315 1.593-.63 2.414-.953 8.288-3.173 8.288-3.173 15.586-8.047 1.428-3.11 1.428-3.11 2-6"/><path fill="#FDFCFA" d="m1013 434 3 1 1 3 3.176.148 4.136.227c.69.03 1.381.062 2.092.094 3.666.212 5.475.45 8.596 2.531.688 3.625.688 3.625 1 7l3-1c-.312 1.938-.312 1.938-1 4l-3 1v-2h-2l-.375-3.375c-.272-3.656-.272-3.656-2.625-5.625-2.9-.307-5.718-.512-8.625-.625l-2.43-.117A860 860 0 0 0 1013 440z"/><path fill="#1E7E39" d="M341 436h2c-.732 3.277-1.835 6.3-3.066 9.422l-1.221 3.105-1.276 3.223-1.287 3.27A5278 5278 0 0 1 333 463c-1.512-4.997.381-8.371 2.188-13.125.84-2.974.71-4.029-.188-6.875.938-2.75.938-2.75 2-5h3z"/><path fill="#157827" d="M421 398h2c1.34 2.789 2.67 5.581 4 8.375l1.156 2.406 1.094 2.305 1.016 2.126C431 415 431 415 431 417h-4c-6.888-12.485-6.888-12.485-6-19"/><path fill="#D30F1C" d="M394 554v2c-17.117 7.961-17.117 7.961-23 6 1.84-3.679 6.67-4.34 10.375-5.687l2.656-1.01 2.555-.94 2.345-.866C391 553 391 553 394 554"/><path fill="#CEF5D7" d="M292 414h1c.34 3.645.67 7.291 1 10.938l.29 3.095c.415 4.65.8 9.304.96 13.97l.078 2.062C295 446 295 446 292 450z"/><path fill="#257B35" d="m352 405 4 2v2c-.43.378-.859.755-1.3 1.145-2.528 2.76-3.583 6.093-4.887 9.543l-.827 2.126A830 830 0 0 0 347 427c-1.371-3.69-.6-5.709.938-9.25l1.152-2.703L350 413h-3c1.625-5.75 1.625-5.75 5-8"/><path fill="#E2F4E3" d="M331 342h2c-.638 3.677-1.71 6.943-3 10.438-3.052 9.575-2.844 19.59-3 29.562h-1a848 848 0 0 1-.75-12.375l-.246-3.504c-.391-7.694.471-13.264 3.996-20.121l1.134-2.275z"/><path fill="#FCE8D9" d="M769 524c-6.836 2.801-12.818 3.409-20.16 3.293l-3.123-.013c-3.26-.017-6.52-.054-9.78-.092q-3.334-.024-6.67-.042A2883 2883 0 0 1 713 527v-1l3.59-.06q6.66-.117 13.323-.257 2.87-.057 5.74-.105c13.752-.107 13.752-.107 27.295-2.26 2.32-.36 3.814.06 6.052.682"/><path fill="#FFFFFA" d="M281 574h26l1 2q-4.25.294-8.5.563l-2.398.17c-5.19.318-9.98.23-15.102-.733z"/><path fill="#CBE5D7" d="M545 494h2v2l2.188.75C552 498 552 498 554.25 500c3.272 2.38 5.574 2.766 9.563 3.25 1.16.15 2.322.3 3.519.453L570 504v1c-8.641.765-15.376-.823-23-5-1.844-1.668-1.844-1.668-3-3z"/><path fill="#409857" d="M270 399h2c.942 5.141.885 9.402.125 14.563-1.048 7.471-1.678 14.903-2.125 22.437h-1c-.157-12.366.323-24.654 1-37"/><path fill="#1F8B28" d="M345 402h1c-.361 6.381-.361 6.381-3 8.938-4.06 1.437-7.738 1.313-12 1.062v-2c2.57-1.101 4.775-1.973 7.563-2.312 3.367-.95 4.443-2.911 6.437-5.688"/><path fill="#E45432" d="M485 473c1 2 1 2 .441 3.945l-.878 2.18-.872 2.195L483 483l-1-4c-2.56.853-4.646 1.804-7.012 3.066l-2.295 1.221-2.38 1.276-2.417 1.287A3246 3246 0 0 0 462 489l-1-2 1.772-.962q3.991-2.172 7.978-4.35c.92-.5 1.84-1 2.79-1.514l2.694-1.475 2.476-1.349c2.23-1.314 4.253-2.757 6.29-4.35"/><path fill="#147C2E" d="m341 427 5 1c-.812 3.438-.812 3.438-2 7l-3 1-1 3h-2c.508-4.318 1.197-8.033 3-12"/><path fill="#12683A" d="M351 510c5.39.954 10.188 2.906 15.25 4.938l2.797 1.091 2.656 1.06c.801.32 1.602.637 2.427.965C376 519 376 519 377 521c-1.812.688-1.812.688-4 1l-1.207-1.32c-2.574-2.412-5.343-3.121-8.668-4.242-4.085-1.393-8.134-2.792-12.125-4.438z"/><path fill="#50984C" d="m438 376 3 2-1 2-1-1c-5.174-.48-5.174-.48-9.937 1.063-1.575 2.87-1.759 5.712-2.063 8.937h-1c-1.563-8.9-1.563-8.9.375-12.687 3.92-1.96 7.45-1.405 11.625-.313"/><path fill="#DBEFE7" d="M332 533c-1 2-1 2-3.043 3.148-3.843 1.107-7.343.828-11.27.477l-2.244-.172c-1.815-.14-3.63-.295-5.443-.453v-1q3.53-.509 7.063-1c.656-.095 1.313-.19 1.99-.29 4.348-.599 8.56-.801 12.947-.71"/><path fill="#F0BD2A" d="M356 452h2l-1 7 8 4c-.75 6.75-.75 6.75-3 9 .875-5.75.875-5.75 2-8l-3.937-.437c-3.938-.438-3.938-.438-5.063-1.563-.239-7.522-.239-7.522 1-10"/><path fill="#FCEBD7" d="M836 438c2.834-.082 5.665-.14 8.5-.187l2.398-.077c5.723-.07 9.854.971 15.102 3.264v3l-3.437-1.375c-7.261-2.463-14.975-2.884-22.563-3.625z"/><path fill="#EBF4E3" d="M421 409h3q1.259 2.4 2.5 4.813l1.406 2.707C429 419 429 419 429 422l-3 1q-1.259-2.653-2.5-5.312l-1.406-2.989C421 412 421 412 421 409"/><path fill="#F8DECA" d="M797 477h1l1 20-1-2h-2l-2 2v-12l2 3z"/><path fill="#3F9A3F" d="M340 393c2.89 1.295 5.01 2.513 7 5 .293 2.262.293 2.262.188 4.688l-.083 2.449L347 407l-2-4-5 6-3-2 1.938-.875c2.214-.953 2.214-.953 3.062-3.125.34-5.33.34-5.33-2-10"/><path fill="#349039" d="M442 382h2c1.401 8.097 1.401 8.097 0 11-2.562 2.25-2.562 2.25-5 4l-2-1v-3l2.5-2.312c2.82-2.485 2.82-2.485 2.813-6z"/><path fill="#DEF3DF" d="M305 385v1l-3 .297c-7.394.81-13.495 1.876-20 5.703h-2c1-3 1-3 2.793-4.168 7.447-3.17 14.192-3.248 22.207-2.832"/><path fill="#F8D0BC" d="M1032 502h1l-1 22h-1v-17h-14v-1l14-1z"/><path fill="#FBFEFE" d="M296 458q.039 2.875.063 5.75l.035 3.234c-.083 2.55-.352 4.595-1.098 7.016h-2v-15c2-1 2-1 3-1"/><path fill="#F8E497" d="M317 572c-6.715 3.874-13.925 2.98-21.375 2.563l-3.098-.159q-3.764-.194-7.527-.404v-1q5.75-.254 11.5-.5l3.266-.145c5.75-.245 11.478-.41 17.234-.355"/><path fill="#FFFEFD" d="M850 465c2 3 2 3 2 9h-19v-1l15-1z"/><path fill="#FBE4D1" d="M1069 438c3.417-.058 6.833-.094 10.25-.125.968-.017 1.936-.034 2.934-.05l2.832-.02 2.602-.032c2.623.25 4.198.76 6.382 2.227l1 3-1.625-.621c-8.043-2.765-15.953-3.076-24.375-3.379z"/><path fill="#1F7728" d="M425 380h1l1 12-5-2c-.232-3.407-.357-5.41 1.438-8.375z"/><path fill="#FFFCFA" d="m1042 526 19 2-1 2q-2.843.079-5.687.125l-3.2.07c-3.168-.198-5.302-.746-8.113-2.195z"/><path fill="#F3F9F0" d="M326 484h1c.847 5.08 1.09 9.848 1 15-3.542-4.62-4.32-7.044-4-13z"/><path fill="#FDF5EB" d="M1069 478v1l-17 4 1-3c5.213-2.474 10.374-3.629 16-2"/><path fill="#E8F7E4" d="m401.125 316.125 2.633.758c2.655 1.323 3.232 2.383 4.242 5.117-5.361-1.59-10.708-3.19-16-5 3.443-2.194 5.271-2.06 9.125-.875"/><path fill="#F7F4D3" d="M425 470c1.984 2.917 1.988 4.124 1.625 7.75L426 481h-3l-2 1q.716-2.438 1.438-4.875l.808-2.742C424 472 424 472 425 470"/><path fill="#3D9B4F" d="m626 448 1 2a1683 1683 0 0 1-3.312 4.313l-1.864 2.425A53 53 0 0 1 617 462c0-5.132 3.32-8.29 6.75-11.875z"/><path fill="#EFB823" d="m363 436 2.688 1.875c2.773 1.779 5.226 3.036 8.312 4.125l-2 7c-1.125-3.75-1.125-3.75 0-6h-5l-1-3h-3z"/><path fill="#DFEFDC" d="m346 427 3 1c-.75 6.625-.75 6.625-3 10l-1-2-2 1z"/><path fill="#FCF2CC" d="M250 516h1l.367 2.738.508 3.574.492 3.551c.456 3.282.456 3.282 2.633 6.137-.375 2.188-.375 2.188-1 4-4.782-6.426-4.423-12.185-4-20"/><path fill="#E13F2A" d="M452 527c3.35 1.117 3.793 1.747 5.688 4.563l1.324 1.94L460 535l-1 2-5-4-1 3c-1.065-3.196-1.074-5.657-1-9"/><path fill="#FDEDDB" d="M936 438q3.906-.118 7.813-.187l2.236-.077c5.5-.074 5.5-.074 7.963 1.776L955 441c-2.704 1.352-4.087.41-6.848-.453-3.978-1.01-8.069-1.235-12.152-1.547z"/><path fill="#F5CB4C" d="m252 510 1 2-.898 1.766c-1.343 2.723-1.511 4.965-1.727 7.984l-.227 2.984L250 527h-1c-1.507-11.303-1.507-11.303 1-14.75z"/><path fill="#FCEADF" d="M984 506c2.313 2.313 2.496 3.479 3.125 6.625l.508 2.477L988 517l-5-1z"/><path fill="#F5FCF6" d="m525 410 1 3c-1.434 2.043-1.434 2.043-3.437 4.188l-1.997 2.167L519 421l-2-3z"/><path fill="#F5FAF6" d="M331 398h1l.813 2.938L334 404l3 1v3h-5c-1.837-3.782-2.158-5.946-1-10"/><path fill="#217A22" d="M326 393h1l-1 7h-1l-1 5-2-1c.435-4.52.788-7.654 4-11"/><path fill="#DDF1E4" d="M505 441h1c.077 4.516.102 8.59-1 13h-1c-.222-1.79-.427-3.582-.625-5.375l-.352-3.023L503 443z"/><path fill="#DEF0E0" d="m674 440 1 3-13-3v-1c4.643-1.106 7.638-1.029 12 1"/><path fill="#E7F0E8" d="m327 397 3 1 .375 3.438L331 405l2 1h-4c-2.29-3.435-2.178-4.985-2-9"/><path fill="#E6EEDD" d="m393 393 1 3c-4.177 1.591-7.532 2.213-12 2 2.87-2.87 6.863-5 11-5"/><path fill="#F2F1D1" d="m349 504 9 3-2 2-2-1v2l-5-1 1-2z"/><path fill="#F2F3DA" d="m328 493 1.813 1.875c2.195 2.262 2.195 2.262 5.187 4.125l-6 2c-1-1-1-1-1.062-4.562z"/><path fill="#F48247" d="M895 442c-2.957 1.478-5.742 1.06-9 1l-1 7c-2-3-2-3-1.625-5.187L884 443c7.429-2.429 7.429-2.429 11-1"/><path fill="#F8F4D6" d="M419 485c2.09 4.18 2.166 4.804 1 9l-4 1z"/><path fill="#FEF2E3" d="m825 442-6.836 3.809c-1.374.756-2.761 1.49-4.164 2.191.125-1.812.125-1.812 1-4 3.756-2.42 5.752-3.355 10-2"/><path fill="#52B454" d="M292 403c2.807 4.21 1.945 6.116 1 11l-2 1a920 920 0 0 1-.062-5.437l-.036-3.06C291 404 291 404 292 403"/><path fill="#E5F7E2" d="m379.355 372.707 3.832.106 3.856.082L390 373v1l-17 2c3-3 3-3 6.355-3.293"/><path fill="#FBEFB2" d="M382 431v2l4 2-3 1v-2l-7 1-1-3c4.75-1 4.75-1 7-1"/><path fill="#DFF1E8" d="m649 504 9 1-1 3h-7z"/><path fill="#EE653A" d="M1043 488c-1.583 4.274-4.506 6.265-8 9 1.31-3.93 3.25-9 8-9"/><path fill="#167933" d="m428 416 5 3-1 4-3-1z"/><path fill="#1E7349" d="M366 516c4.128.607 7.332 2.038 11 4l-4 2-1.25-1.312c-1.81-1.746-3.715-3.214-5.75-4.688"/><path fill="#F6D758" d="M384 451c.91 3.073 1.089 5.801 1 9h-4c.557-3.344 1.352-6.033 3-9"/><path fill="#F8F9E7" d="M388 397v2c-3.371 1.498-5.204 2-9 2l1-3c5.75-1 5.75-1 8-1"/><path fill="#FAE4D6" d="M866 525v2h-12v-1a367 367 0 0 1 4.313-1.062l2.425-.598C863 524 863 524 866 525"/><path fill="#D1EAD7" d="M336 452c1.858 3.135 2.201 5.375 2 9l-4-1z"/><path fill="#FAE4D2" d="m911 439-2 4-2-2c-2.323-.4-4.657-.74-7-1v-1c7.625-1.125 7.625-1.125 11 0"/><path fill="#E5F5E8" d="m532 406 1 3-7 4c.188-1.812.188-1.812 1-4 2.563-1.75 2.563-1.75 5-3"/><path fill="#E2EED9" d="m379 399 1 3-5 2-3-3c4.75-2 4.75-2 7-2"/><path fill="#4FA043" d="M330 389c7.75.875 7.75.875 10 2v2c-6.523-.615-6.523-.615-8.937-2.562z"/><path fill="#FCECDA" d="M778 464c6.152.586 6.152.586 8 1l1 2-2 2-7-4z"/><path fill="#EE632F" d="m1041 448 2 1-1.875 1.813c-2.262 2.195-2.262 2.195-4.125 5.187l-1-4z"/><path fill="#F8FAE9" d="M345 435h1c-.75 7.75-.75 7.75-3 10-.195-6.055-.195-6.055 0-8z"/><path fill="#DCECDA" d="M426 415c3 3.625 3 3.625 3 7l-3 1c-.8-3.287-1.097-4.71 0-8"/><path fill="#197F24" d="M352 405c2.125.938 2.125.938 4 2-2.639 1.414-5.071 2.372-8 3 1.75-3.875 1.75-3.875 4-5"/><path fill="#D12313" d="M327 570h6l-2 5c-2-1.375-2-1.375-4-3z"/><path fill="#38855E" d="m422 489 4 1v2c-3.462 3-3.462 3-6 3z"/><path fill="#FCEADB" d="M1060 480c-2.918 1.945-4.625 2.453-8 3l1-3c2.667-1.333 4.167-.671 7 0"/><path fill="#FEF5EB" d="M891 441v1l-3.375.875c-3.628.817-3.628.817-5.625 3.125l-1-4c3.215-1.607 6.436-1.057 10-1"/></svg>